<svg version="1" xmlns="http://www.w3.org/2000/svg" width="1066.667" height="1066.667" viewBox="0 0 800.000000 800.000000"><path d="M295.9 146.1c-.8.5-2.2.9-3.2.9-3.6 0-15.3 5.4-22.5 10.3-7 4.8-14 12-17.2 17.6-3.8 6.8-9 17.8-9.4 20.1-.3 1.4-.5 2.6-.7 2.7-.1.2-.3.7-.4 1.3-.1.5-.3 1.1-.5 1.2-.9 1.1-1.3 18.9-.5 22.8.3 1.4.8 4.1 1.1 6 .9 4.7 6.5 16.8 12 26 2.5 4.1 4.9 8.2 5.4 9 4.5 8 41.9 71.4 43.8 74.5 1.5 2.2 5.7 9.4 9.6 16 3.8 6.6 7.7 13.3 8.6 15 32.7 56.4 35.1 60.8 33.9 62-.7.7-22.4 1-66.2 1l-65.1.1-3.1 5.4c-1.8 3-8.4 14.5-14.7 25.5-6.4 11-12.8 22.2-14.3 25-1.5 2.7-3.1 5.4-3.5 6-.7.9-15.8 27-21.8 37.5-1.4 2.5-5 8.8-8 14-3 5.2-6.2 10.8-7.2 12.5-4.1 7.2-21 36.5-23.9 41.4-8.9 15-23.7 21.9-40.5 18.8-15.6-2.8-27.9-16.5-29.3-32.5-1-11.7.4-15.5 15.8-42.3 7.8-13.4 15.1-26.2 16.4-28.4 1.2-2.2 5.5-9.6 9.5-16.5s8-13.9 9-15.6c1-1.7 7.1-12.3 13.6-23.5 6.4-11.2 15.8-27.6 20.9-36.4 8.8-15.3 17.9-31 22.3-38.5 1.1-1.9 3.2-5.5 4.7-8 1.4-2.5 2.8-5.3 3.2-6.3.3-.9.9-1.7 1.4-1.7.5 0 .9-.4.9-.9 0-.6 9.3-17.1 20.7-36.8 11.3-19.7 21.3-37.1 22.2-38.8.9-1.6 1.9-3.2 2.2-3.5.3-.3 1.7-2.6 3.1-5.1l2.5-4.6-2.7-4.9c-5.5-9.9-13.2-22.9-13.9-23.7-.4-.4-2.7 2.8-5.1 7-5.5 9.7-15.7 27.3-17 29.3-.6.8-1.3 2.2-1.7 3-.4.8-4.2 7.4-8.5 14.8-4.3 7.3-7.8 13.5-7.8 13.7 0 .2-1.7 3.2-3.9 6.7-2.1 3.5-10.9 18.7-19.6 33.8-8.7 15.1-19.6 34-24.3 42-4.7 8-9.4 16.1-10.4 18-1.1 1.9-6.4 11.2-11.9 20.6-5.4 9.4-10.8 18.9-12 21-1.2 2.2-3 5.2-4 6.9-1 1.6-4 6.8-6.7 11.5-7.9 13.7-16.3 28.3-18.2 31.5-29.8 51.6-30.4 52.9-30.5 71.5 0 13.7 1.2 19.3 6.8 30.5 5.7 11.4 14.5 20.9 25.6 27.5 11.9 7.1 20.5 9.4 35.1 9.3 18-.1 36.7-8.3 48.3-21.2 3.2-3.6 12.7-17.4 12.7-18.5 0-.4 18.3-32 20-34.6.6-.8 1.3-2.2 1.7-3 .4-.8 2.8-5.1 5.3-9.5 2.6-4.4 10-17.2 16.5-28.5s14.9-25.9 18.8-32.5c3.8-6.6 7.8-13.6 8.9-15.5 1.1-1.9 4.5-7.9 7.6-13.2l5.6-9.8 84.4-.2 84.3-.3-7.6-12.9c-4.1-7.1-7.5-13.1-7.5-13.2 0-.2-1.7-3.2-3.8-6.6-2.1-3.5-5.2-8.8-6.9-11.8-1.7-3-5.4-9.6-8.3-14.5-2.9-5-6.4-11-7.8-13.5-1.4-2.5-6.4-11.3-11.2-19.5-4.8-8.3-9.8-17-11.2-19.5-1.4-2.5-12.5-21.6-24.5-42.5-51.9-89.9-48-82.7-49-89.4-1.5-9.8.3-19 5.1-26.5 6-9.4 15.3-15.1 26.2-16.2 9-.9 12.4-.4 20 3.1 9.3 4.1 14.5 10.5 27.4 33 .9 1.6 8.5 14.5 16.7 28.5 8.3 14 16 27.1 17.1 29 8.2 14.2 11 18.9 12.8 21.5 1.1 1.7 2.4 3.7 2.7 4.5.4.8 1.5 2.8 2.6 4.5 1.9 3.3 34.8 60.2 38.9 67.5 1.4 2.5 3.6 6.2 4.9 8.2 1.2 2.1 2.3 4 2.3 4.2 0 .3 2.3 4.1 5 8.6 2.8 4.5 5 8.3 5 8.5 0 .2 5.5 10 12.3 21.7 6.8 11.7 14.5 25.1 17.2 29.8 2.6 4.7 5.1 8.7 5.5 9 .4.3 1 1.4 1.4 2.5.6 2 1.2 2.1 51 2.1h50.3l-3.8-6.3c-2.2-3.5-3.9-6.8-3.9-7.3 0-.6-.4-1-1-1-.5 0-1-.5-1-1.1 0-.6-3.2-6.5-7.1-13.2-14.8-25.3-39.9-69-43-74.7-1.3-2.5-2.7-4.7-3.1-4.8-.5-.2-.8-.7-.8-1.2s-1.9-4.1-4.3-8.2c-3.8-6.4-6-10.1-10.5-18.4-3.4-6.1-48.8-84.5-50.7-87.4-8.6-13.7-11-24.8-7.9-36.6 5.2-20.3 26.7-31.8 47.4-25.4 10.6 3.3 16.2 9.2 27 28 .5.8 9.1 15.4 19.1 32.5 10 17 18.9 32.3 19.9 34 1 1.6 4.1 7 7 12 2.9 4.9 8.4 14.4 12.2 21 3.7 6.6 7.3 12.7 7.8 13.5.6.8 1.5 2.6 2.2 4 .7 1.4 1.7 3.2 2.4 4 .6.8 2.3 3.5 3.6 6 1.4 2.5 6.7 11.7 11.8 20.5 5.1 8.8 10.6 18.5 12.3 21.5 1.6 3 3.3 5.9 3.7 6.5.4.5 1.7 2.7 2.9 4.7 2.3 4.1 2.2 4 13.1 22.8 3.9 6.9 8.2 14.3 9.5 16.5 8.7 15.3 14.4 25.2 28.5 49.5 6.2 10.7 12.2 21.3 13.4 23.5 1.2 2.2 2.3 4.2 2.6 4.5.3.3 4.1 6.8 8.5 14.5s8.5 14.7 9 15.7c.6.9 3 5.2 5.4 9.5 2.4 4.3 5.6 9.6 7 11.8 1.4 2.2 2.6 4.2 2.6 4.5 0 .3 1.3 2.5 2.7 5 3 5 5.5 14.6 5.3 20-.1 2.8-.9 7.8-2 12-.4 1.7-4.9 9.5-6.8 11.6-2.4 2.8-11.4 9.9-12.5 9.9-.4 0-1.1.3-1.7.6-1.8 1.2-8 2.2-13.9 2.4-10.6.4-19.2-3-26.7-10.4-3.3-3.3-9.9-12.3-9.9-13.5 0-.3-2.9-5.5-6.5-11.6s-6.5-11.4-6.5-11.7c0-.4-.6-1.4-1.4-2.2-1.1-1.4-3.9-6.2-9.3-16.1-.7-1.4-3.2-5.7-5.6-9.5l-4.2-7-50.1-.1-50.1-.1 8 13.6c9.5 16.4 11.6 21.3 12 28.8 1.6 27.5-24.8 46.9-50.7 37.2-10.9-4-14.5-8.6-36.1-45.9l-19.3-33.5-105.5-.2-105.5-.2-5.5 9.2c-6.5 11.1-11.7 20.3-11.7 20.8 0 .2 46.9.4 104.3.4 63.6-.1 105.1.3 106.5.9 1.2.5 2.2 1.3 2.2 1.8s1.1 2.5 2.3 4.6c1.3 2 3.5 5.7 4.9 8.2 8.7 15.6 21.4 37 23.6 40 11.3 15.3 30.7 25.5 49.9 26.3 22.6 1 44.3-9.2 57.4-26.9 2.1-2.9 3.9-5.6 3.9-6 0-.3.9-1.9 2.1-3.5 1.1-1.6 1.7-2.9 1.4-2.9-.4 0 0-1.1.9-2.5s1.4-2.5 1.2-2.5c-.3 0 .2-1.6 1-3.5s1.1-3.5.8-3.5c-.4 0-.2-.6.4-1.3.6-.7 1-6.6.9-14.9-.1-7.5.1-13.4.6-13.1.4.2.7 0 .7-.4 0-.5 7.1-.8 15.9-.8 11.8 0 16.2.4 17.5 1.4.9.7 3.5 4.8 5.8 9s4.4 7.8 4.7 8.1c.7.6 4.9 8.2 6.6 11.7.5 1.3 1.3 2.3 1.8 2.3.4 0 .7.5.7 1.1 0 .6 2.9 5.9 6.5 11.8 5.9 9.9 16.1 22.1 18.5 22.1.5 0 1 .4 1 1 0 .5.4 1 .9 1 .6 0 3 1.3 5.4 2.9 3.8 2.6 16.4 7.5 22.2 8.7 4.1.8 19.2.5 23.8-.6 2.7-.6 5.3-.8 5.8-.5.5.4.9.1.9-.4 0-.6.7-1.1 1.5-1.1s2.3-.4 3.3-.9c.9-.5 4.2-2.2 7.2-3.6 3-1.5 7.3-4.2 9.5-5.9 4.5-3.4 13.5-12.6 13.5-13.7 0-.4.6-1.4 1.3-2.1 1.2-1.1 7.1-12.5 7.2-13.8.1-.3.6-2.1 1.3-4.1 2.2-6.2 2.4-8.1 2.7-18.4.5-14.9-3-25.8-13.3-42.9-2.3-3.7-4.2-7-4.2-7.3 0-.3-2.1-4-4.6-8.2-2.5-4.2-5-8.3-5.4-9.1-.5-.8-2.3-4-4.1-7-1.8-3-4-6.9-4.9-8.5-.9-1.7-5.9-10.2-11-19-5-8.8-10.5-18.3-12.1-21.1-1.5-2.8-5.8-10.3-9.5-16.5-7.2-12.4-9.6-16.5-12.6-21.9-1.1-1.9-2.8-4.9-3.8-6.5-1.1-1.7-2.6-4.4-3.5-6-.8-1.7-2.5-4.6-3.6-6.5-1.2-1.9-3.3-5.5-4.7-8-1.4-2.5-3.4-5.7-4.4-7.3-1.1-1.5-1.6-2.7-1.3-2.7.4 0-.1-.7-.9-1.6-.9-.8-1.6-2.2-1.6-3 0-.8-.4-1.4-1-1.4-.5 0-1-.9-1-2s-.3-2-.8-2c-.4 0-1.9-2.1-3.2-4.8-1.4-2.6-2.7-4.9-3.1-5.2-.3-.3-3.3-5.6-6.8-11.7-3.5-6.2-6.7-11.6-7.2-11.9-.5-.3-.7-1-.4-1.5.4-.5.1-.9-.4-.9-.6 0-1.1-.4-1.1-1 0-.5-1.7-3.8-3.8-7.2-2.1-3.5-4.1-7-4.5-7.8-.4-.8-1.8-3.3-3.2-5.5-1.4-2.2-2.8-4.7-3.2-5.5-.4-.8-2.6-4.8-5-8.8-2.4-4-4.3-7.7-4.3-8.2 0-.6-.3-1-.8-1-.4 0-2.5-3.5-4.7-7.8-2.1-4.2-4.6-8.8-5.5-10.2-1-1.4-2.8-4.5-4.2-7-2.4-4.3-19.8-34.4-42.6-73.5-15.5-26.8-21.5-33.4-38.4-42.8-2.7-1.5-4.8-2.4-4.8-2.1 0 .4-.6.1-1.3-.5-.8-.6-2.4-1.3-3.8-1.5-1.3-.3-2.4-.5-2.4-.6 0-.1-.7-.3-1.5-.5-14.2-3.2-27.4-2.4-39.5 2.4-6.8 2.6-10.5 4.4-10.5 5.1 0 .5-1.1 1.1-2.4 1.4-2.5.6-18.6 15.8-18.6 17.5 0 .5-1.6 3.5-3.5 6.7-9 14.9-11.1 34.6-5.4 51.8 2.4 7.4 3.1 8.7 18.2 34.6 6.6 11.3 13.1 22.5 14.5 25 1.3 2.5 2.8 4.9 3.2 5.5.8 1.1 16.5 27.8 20.8 35.5 1.4 2.5 3.3 5.7 4.3 7.2 1.1 1.4 1.9 2.8 1.9 3.1 0 .9 6.5 11.2 7.3 11.5.4.2.7 1.2.7 2.2 0 1 .4 2.1.9 2.4.5.3 2.1 2.9 3.6 5.8s3 5.5 3.4 5.8c.6.5 3.2 5.1 7 12.5.9 1.6 2.2 3.5 2.9 4.3.6.7 1.2 2 1.2 2.8 0 .8.4 1.4.8 1.4s1.3 1.2 2 2.7c1.2 2.8 5.1 9.7 8 14.3.9 1.4 2.7 4.5 4.1 7 1.3 2.5 3.7 6.5 5.2 9 2.1 3.3 2.5 4.9 1.8 6.2-.9 1.6-2.5 1.8-15 1.7h-14l-2.3-3.7c-1.3-2-9.4-15.9-17.9-30.7-8.5-14.9-18.4-32.1-22.1-38.4-3.6-6.2-6.6-11.5-6.6-11.7 0-.3-1.1-2.3-2.6-4.5-1.4-2.2-3.3-5.5-4.3-7.2-1-1.8-6.1-10.6-11.3-19.7-5.3-9.1-10.4-18.1-11.5-20-1.1-1.9-6.9-12.1-13-22.5-15.6-27-44.5-77.1-51.6-89.5-8.5-14.7-14.1-21.5-23.2-27.7-12.5-8.5-25.9-12.5-40.9-12.2-5.2.1-10 .5-10.7 1z"/></svg>