<svg xmlns="http://www.w3.org/2000/svg" xmlns:xlink="http://www.w3.org/1999/xlink" version="1.1" id="layer_1" x="0px" y="100px" width="600px" height="500px" viewBox="0 120 600 400" enable-background="new 0 100 600 350" xml:space="preserve">
<g>
	<g clip-path="url(#SVGID_2_)">
		<g>
			<g id="XMLID_1431_">
				<g>
					<g>
						<g>
							
								<rect x="315.443" y="307.409" transform="matrix(-9.133060e-004 -1 1 -9.133060e-004 93.9218 731.7101)" fill-rule="evenodd" clip-rule="evenodd" fill="#EE6D32" width="194.077" height="23.055"/>
						</g>
					</g>
				</g>
			</g>
			<g id="XMLID_1426_">
				<rect x="418.447" y="400.411" fill-rule="evenodd" clip-rule="evenodd" fill="#FFFFFF" width="5.494" height="1.484"/>
			</g>
			<g id="XMLID_1425_">
				<rect x="418.442" y="396.133" fill-rule="evenodd" clip-rule="evenodd" fill="#FFFFFF" width="5.494" height="1.484"/>
			</g>
			<g id="XMLID_1424_">
				
					<rect x="415.092" y="391.856" transform="matrix(-1 6.627162e-004 -6.627162e-004 -1 839.2835 784.9172)" fill-rule="evenodd" clip-rule="evenodd" fill="#FFFFFF" width="8.84" height="1.482"/>
			</g>
			<g id="XMLID_1423_">
				<rect x="418.432" y="387.49" fill-rule="evenodd" clip-rule="evenodd" fill="#FFFFFF" width="5.495" height="1.484"/>
			</g>
			<g id="XMLID_1422_">
				<rect x="418.427" y="383.211" fill-rule="evenodd" clip-rule="evenodd" fill="#FFFFFF" width="5.496" height="1.484"/>
			</g>
			<g id="XMLID_1421_">
				
					<rect x="415.077" y="378.935" transform="matrix(-1 6.627162e-004 -6.627162e-004 -1 839.2462 759.0745)" fill-rule="evenodd" clip-rule="evenodd" fill="#FFFFFF" width="8.84" height="1.483"/>
			</g>
			<g id="XMLID_1420_">
				
					<rect x="418.418" y="374.569" transform="matrix(-1 0.0011 -0.0011 -1 842.731 750.1737)" fill-rule="evenodd" clip-rule="evenodd" fill="#FFFFFF" width="5.494" height="1.484"/>
			</g>
			<g id="XMLID_1419_">
				<rect x="418.413" y="370.29" fill-rule="evenodd" clip-rule="evenodd" fill="#FFFFFF" width="5.495" height="1.484"/>
			</g>
			<g id="XMLID_1418_">
				
					<rect x="415.063" y="366.014" transform="matrix(-1 6.627162e-004 -6.627162e-004 -1 839.2092 733.2317)" fill-rule="evenodd" clip-rule="evenodd" fill="#FFFFFF" width="8.841" height="1.482"/>
			</g>
			<g id="XMLID_1417_">
				<rect x="418.404" y="361.648" fill-rule="evenodd" clip-rule="evenodd" fill="#FFFFFF" width="5.495" height="1.482"/>
			</g>
			<g id="XMLID_1416_">
				<rect x="418.399" y="357.37" fill-rule="evenodd" clip-rule="evenodd" fill="#FFFFFF" width="5.495" height="1.483"/>
			</g>
			<g id="XMLID_1415_">
				
					<rect x="415.049" y="353.091" transform="matrix(-1 7.731040e-004 -7.731040e-004 -1 839.2124 707.3426)" fill-rule="evenodd" clip-rule="evenodd" fill="#FFFFFF" width="8.841" height="1.484"/>
			</g>
			<g id="XMLID_1414_">
				
					<rect x="415.049" y="353.091" transform="matrix(-1 7.731040e-004 -7.731040e-004 -1 839.2124 707.3426)" fill-rule="evenodd" clip-rule="evenodd" fill="#FFFFFF" width="8.841" height="1.484"/>
			</g>
			<g id="XMLID_1413_">
				<rect x="418.389" y="348.727" fill-rule="evenodd" clip-rule="evenodd" fill="#FFFFFF" width="5.496" height="1.482"/>
			</g>
			<g id="XMLID_1412_">
				<rect x="418.385" y="344.448" fill-rule="evenodd" clip-rule="evenodd" fill="#FFFFFF" width="5.495" height="1.482"/>
			</g>
			<g id="XMLID_1411_">
				
					<rect x="415.036" y="340.171" transform="matrix(-1 6.629546e-004 -6.629546e-004 -1 839.1376 681.546)" fill-rule="evenodd" clip-rule="evenodd" fill="#FFFFFF" width="8.839" height="1.482"/>
			</g>
			<g id="XMLID_1410_">
				
					<rect x="415.036" y="340.171" transform="matrix(-1 6.629546e-004 -6.629546e-004 -1 839.1376 681.546)" fill-rule="evenodd" clip-rule="evenodd" fill="#FFFFFF" width="8.839" height="1.482"/>
			</g>
			<g id="XMLID_1409_">
				<rect x="418.376" y="335.806" fill-rule="evenodd" clip-rule="evenodd" fill="#FFFFFF" width="5.495" height="1.482"/>
			</g>
			<g id="XMLID_1408_">
				<rect x="418.372" y="331.527" fill-rule="evenodd" clip-rule="evenodd" fill="#FFFFFF" width="5.494" height="1.482"/>
			</g>
			<g id="XMLID_1407_">
				
					<rect x="415.021" y="327.25" transform="matrix(-1 8.837301e-004 -8.837301e-004 -1 839.172 655.6116)" fill-rule="evenodd" clip-rule="evenodd" fill="#FFFFFF" width="8.84" height="1.482"/>
			</g>
			<g id="XMLID_1406_">
				
					<rect x="415.021" y="327.25" transform="matrix(-1 8.837301e-004 -8.837301e-004 -1 839.172 655.6116)" fill-rule="evenodd" clip-rule="evenodd" fill="#FFFFFF" width="8.84" height="1.482"/>
			</g>
			<g id="XMLID_1405_">
				<rect x="418.362" y="322.884" fill-rule="evenodd" clip-rule="evenodd" fill="#FFFFFF" width="5.495" height="1.483"/>
			</g>
			<g id="XMLID_1404_">
				<rect x="418.357" y="318.605" fill-rule="evenodd" clip-rule="evenodd" fill="#FFFFFF" width="5.495" height="1.482"/>
			</g>
			<g id="XMLID_1403_">
				
					<rect x="415.007" y="314.329" transform="matrix(-1 7.733424e-004 -7.733424e-004 -1 839.0975 629.8152)" fill-rule="evenodd" clip-rule="evenodd" fill="#FFFFFF" width="8.84" height="1.482"/>
			</g>
			<g id="XMLID_1402_">
				
					<rect x="415.007" y="314.329" transform="matrix(-1 7.733424e-004 -7.733424e-004 -1 839.0975 629.8152)" fill-rule="evenodd" clip-rule="evenodd" fill="#FFFFFF" width="8.84" height="1.482"/>
			</g>
			<g id="XMLID_1401_">
				<rect x="418.348" y="309.963" fill-rule="evenodd" clip-rule="evenodd" fill="#FFFFFF" width="5.495" height="1.483"/>
			</g>
			<g id="XMLID_1400_">
				<rect x="418.343" y="305.684" fill-rule="evenodd" clip-rule="evenodd" fill="#FFFFFF" width="5.494" height="1.483"/>
			</g>
			<g id="XMLID_1399_">
				
					<rect x="414.992" y="301.407" transform="matrix(-1 8.837301e-004 -8.837301e-004 -1 839.0916 603.9271)" fill-rule="evenodd" clip-rule="evenodd" fill="#FFFFFF" width="8.841" height="1.483"/>
			</g>
			<g id="XMLID_1398_">
				
					<rect x="414.992" y="301.407" transform="matrix(-1 8.837301e-004 -8.837301e-004 -1 839.0916 603.9271)" fill-rule="evenodd" clip-rule="evenodd" fill="#FFFFFF" width="8.841" height="1.483"/>
			</g>
			<g id="XMLID_1397_">
				<rect x="418.333" y="297.041" fill-rule="evenodd" clip-rule="evenodd" fill="#FFFFFF" width="5.495" height="1.482"/>
			</g>
			<g id="XMLID_1396_">
				<rect x="418.33" y="292.763" fill-rule="evenodd" clip-rule="evenodd" fill="#FFFFFF" width="5.494" height="1.483"/>
			</g>
			<g id="XMLID_1395_">
				
					<rect x="414.979" y="288.485" transform="matrix(-1 8.837301e-004 -8.837301e-004 -1 839.0538 578.0844)" fill-rule="evenodd" clip-rule="evenodd" fill="#FFFFFF" width="8.84" height="1.484"/>
			</g>
			<g id="XMLID_1394_">
				
					<rect x="414.979" y="288.485" transform="matrix(-1 8.837301e-004 -8.837301e-004 -1 839.0538 578.0844)" fill-rule="evenodd" clip-rule="evenodd" fill="#FFFFFF" width="8.84" height="1.484"/>
			</g>
			<g id="XMLID_1393_">
				<rect x="418.319" y="284.12" fill-rule="evenodd" clip-rule="evenodd" fill="#FFFFFF" width="5.495" height="1.483"/>
			</g>
			<g id="XMLID_1392_">
				<rect x="418.313" y="279.841" fill-rule="evenodd" clip-rule="evenodd" fill="#FFFFFF" width="5.496" height="1.483"/>
			</g>
			<g id="XMLID_1391_">
				
					<rect x="414.965" y="275.564" transform="matrix(-1 7.733424e-004 -7.733424e-004 -1 838.9826 552.2879)" fill-rule="evenodd" clip-rule="evenodd" fill="#FFFFFF" width="8.839" height="1.484"/>
			</g>
			<g id="XMLID_1390_">
				
					<rect x="414.965" y="275.564" transform="matrix(-1 7.733424e-004 -7.733424e-004 -1 838.9826 552.2879)" fill-rule="evenodd" clip-rule="evenodd" fill="#FFFFFF" width="8.839" height="1.484"/>
			</g>
			<g id="XMLID_1389_">
				<rect x="418.305" y="271.199" fill-rule="evenodd" clip-rule="evenodd" fill="#FFFFFF" width="5.495" height="1.484"/>
			</g>
			<g id="XMLID_1388_">
				<rect x="418.3" y="266.92" fill-rule="evenodd" clip-rule="evenodd" fill="#FFFFFF" width="5.495" height="1.484"/>
			</g>
			<g id="XMLID_1387_">
				
					<rect x="414.951" y="262.643" transform="matrix(-1 8.837301e-004 -8.837301e-004 -1 838.9742 526.3988)" fill-rule="evenodd" clip-rule="evenodd" fill="#FFFFFF" width="8.84" height="1.484"/>
			</g>
			<g id="XMLID_1254_">
				
					<rect x="414.951" y="262.643" transform="matrix(-1 8.837301e-004 -8.837301e-004 -1 838.9742 526.3988)" fill-rule="evenodd" clip-rule="evenodd" fill="#FFFFFF" width="8.84" height="1.484"/>
			</g>
			<g id="XMLID_1248_">
				<rect x="418.292" y="258.278" fill-rule="evenodd" clip-rule="evenodd" fill="#FFFFFF" width="5.494" height="1.482"/>
			</g>
			<g id="XMLID_1246_">
				
					<rect x="418.287" y="253.999" transform="matrix(-1 0.0011 -0.0011 -1 842.3397 509.0333)" fill-rule="evenodd" clip-rule="evenodd" fill="#FFFFFF" width="5.495" height="1.484"/>
			</g>
			<g id="XMLID_1241_">
				
					<rect x="414.936" y="249.721" transform="matrix(-1 7.733424e-004 -7.733424e-004 -1 838.906 500.6024)" fill-rule="evenodd" clip-rule="evenodd" fill="#FFFFFF" width="8.84" height="1.484"/>
			</g>
			<g id="XMLID_1235_">
				
					<rect x="414.936" y="249.721" transform="matrix(-1 7.733424e-004 -7.733424e-004 -1 838.906 500.6024)" fill-rule="evenodd" clip-rule="evenodd" fill="#FFFFFF" width="8.84" height="1.484"/>
			</g>
			<g id="XMLID_1059_">
				<rect x="418.277" y="245.357" fill-rule="evenodd" clip-rule="evenodd" fill="#FFFFFF" width="5.495" height="1.482"/>
			</g>
			<g id="XMLID_1058_">
				<rect x="418.273" y="241.078" fill-rule="evenodd" clip-rule="evenodd" fill="#FFFFFF" width="5.494" height="1.483"/>
			</g>
			<g id="XMLID_1057_">
				
					<rect x="414.923" y="236.8" transform="matrix(-1 7.733424e-004 -7.733424e-004 -1 838.8687 474.7596)" fill-rule="evenodd" clip-rule="evenodd" fill="#FFFFFF" width="8.839" height="1.483"/>
			</g>
			<g id="XMLID_1056_">
				
					<rect x="414.923" y="236.8" transform="matrix(-1 7.733424e-004 -7.733424e-004 -1 838.8687 474.7596)" fill-rule="evenodd" clip-rule="evenodd" fill="#FFFFFF" width="8.839" height="1.483"/>
			</g>
			<g id="XMLID_1055_">
				<rect x="418.264" y="232.435" fill-rule="evenodd" clip-rule="evenodd" fill="#FFFFFF" width="5.494" height="1.483"/>
			</g>
			<g id="XMLID_1054_">
				<rect x="418.259" y="228.157" fill-rule="evenodd" clip-rule="evenodd" fill="#FFFFFF" width="5.494" height="1.482"/>
			</g>
			<g id="XMLID_1053_">
				
					<rect x="414.908" y="223.879" transform="matrix(-1 8.837301e-004 -8.837301e-004 -1 838.8541 448.8705)" fill-rule="evenodd" clip-rule="evenodd" fill="#FFFFFF" width="8.84" height="1.483"/>
			</g>
			<g id="XMLID_1429_">
				<rect x="418.459" y="413.334" fill-rule="evenodd" clip-rule="evenodd" fill="#FFFFFF" width="5.496" height="1.483"/>
			</g>
			<g id="XMLID_1428_">
				<rect x="418.455" y="409.056" fill-rule="evenodd" clip-rule="evenodd" fill="#FFFFFF" width="5.495" height="1.482"/>
			</g>
			<g id="XMLID_1427_">
				
					<rect x="415.106" y="404.778" transform="matrix(-1 6.629546e-004 -6.629546e-004 -1 839.321 810.7609)" fill-rule="evenodd" clip-rule="evenodd" fill="#FFFFFF" width="8.839" height="1.482"/>
			</g>
		</g>
		<g>
			<g>
				<rect x="418.716" y="461.129" fill="#A1A9D6" width="83.787" height="1.899"/>
			</g>
			<g>
				<rect x="158.477" y="443.169" fill="#A1A9D6" width="185.58" height="1.899"/>
			</g>
			<g>
				<rect x="386.673" y="461.129" fill="#A1A9D6" width="16.847" height="1.899"/>
			</g>
			<g>
				<rect x="514.863" y="478.722" fill="#A1A9D6" width="49.179" height="1.9"/>
			</g>
			<g>
				<rect x="496.055" y="478.722" fill="#A1A9D6" width="9.889" height="1.9"/>
			</g>
			<g>
				<g>
					<rect x="511.123" y="444.285" fill="#A1A9D6" width="28.645" height="1.9"/>
				</g>
				<g>
					<rect x="550.397" y="444.285" fill="#A1A9D6" width="9.72" height="1.9"/>
				</g>
				<g>
					<rect x="500.167" y="444.285" fill="#A1A9D6" width="5.759" height="1.9"/>
				</g>
			</g>
			<g>
				<g>
					<rect x="179.994" y="498.168" fill="#A1A9D6" width="28.645" height="1.9"/>
				</g>
				<g>
					<rect x="219.268" y="498.168" fill="#A1A9D6" width="9.72" height="1.9"/>
				</g>
				<g>
					<rect x="169.039" y="498.168" fill="#A1A9D6" width="5.76" height="1.9"/>
				</g>
			</g>
			<g>
				<g>
					<rect x="145.841" y="485.531" fill="#A1A9D6" width="55.479" height="1.899"/>
				</g>
				<g>
					<rect x="221.905" y="485.531" fill="#A1A9D6" width="18.826" height="1.899"/>
				</g>
				<g>
					<rect x="124.623" y="485.531" fill="#A1A9D6" width="11.155" height="1.899"/>
				</g>
			</g>
			<g>
				<g>
					<rect x="67.152" y="453.844" fill="#A1A9D6" width="23.921" height="1.9"/>
				</g>
				<g>
					<rect x="102.397" y="453.844" fill="#A1A9D6" width="10.354" height="1.9"/>
				</g>
			</g>
		</g>
		<g>
			<path fill="#CCCCD1" d="M77.814,381.281c-0.019-0.124-0.165-0.252-0.165-0.381v-18.976c0-1.41,1.277-2.528,2.688-2.528     l11.64-0.024c1.41,0,2.569,1.119,2.569,2.528v19c0,0.131,0.038,0.257,0.02,0.381c6.85-2.991,11.444-9.555,11.444-17.172     c0-7.504-5.239-15.065-11.464-18.722v-82.322c0-4.771-3.378-8.44-8.147-8.44h-0.021c-4.772,0-8.729,3.67-8.729,8.44v82.322     c-7.114,3.657-11.371,11.216-11.371,18.722C66.279,371.726,70.964,378.29,77.814,381.281z M86.284,259.541     c1.847,0,3.345,1.497,3.345,3.345c0,1.846-1.498,3.344-3.344,3.344c-1.848,0-3.345-1.498-3.344-3.345     C82.939,261.038,84.438,259.54,86.284,259.541z"/>
		</g>
		<g>
			<g>
				<g>
					<g>
						<linearGradient id="SVGID_4_" gradientUnits="userSpaceOnUse" x1="504.1484" y1="395.2217" x2="577.7549" y2="395.2217">
							<stop offset="0" style="stop-color:#FFCA02"/>
							<stop offset="1" style="stop-color:#F03B9A"/>
						</linearGradient>
						<path fill="url(#SVGID_4_)" d="M521.473,428.158l-10.074-9.839c-0.537-0.523-0.836-1.252-0.825-1.999        c0.012-0.748,0.334-1.467,0.884-1.974l4.297-3.949c0.197-0.18,0.246-0.472,0.122-0.707c-0.428-0.804-0.691-1.288-0.853-1.579        h-8.141c-1.507,0-2.735-1.227-2.735-2.735v-12.804c0-1.509,1.228-2.735,2.735-2.735h7.229c0.284,0,0.532-0.212,0.576-0.493        c0.189-1.215,0.57-2.344,1.133-3.355c0.113-0.204,0.08-0.464-0.083-0.649l-4.76-5.441c-0.937-1.074-0.887-2.71,0.114-3.725        l8.921-9.021c0.519-0.523,1.208-0.812,1.944-0.812c0.007,0,0.013,0,0.02,0c0.744,0.006,1.438,0.303,1.953,0.839l4.285,4.455        c0.171,0.18,0.438,0.235,0.663,0.13c0.573-0.26,1.95-0.766,4.095-1.503c0.581-0.2,0.971-0.748,0.971-1.362v-3.878        c0-1.508,1.227-2.736,2.735-2.736h12.804c1.509,0,2.736,1.229,2.736,2.736v5.018c0,0.266,0.184,0.494,0.457,0.572        c0.837,0.238,1.765,0.642,2.756,1.198c0.221,0.124,0.495,0.091,0.681-0.08l4.882-4.483c1.096-1.005,2.767-0.962,3.807,0.103        l9.096,9.298c1.022,1.043,1.044,2.701,0.05,3.773l-4.575,4.925c-0.174,0.188-0.208,0.46-0.087,0.676        c0.571,1.005,0.96,2.126,1.153,3.328c0.044,0.278,0.292,0.488,0.575,0.488h4.003c1.509,0,2.737,1.227,2.737,2.735v12.804        c0,1.509-1.228,2.735-2.737,2.735h-4.921c-0.166,0.288-0.438,0.77-0.878,1.57c-0.134,0.242-0.078,0.549,0.134,0.729        l4.054,3.458c0.581,0.493,0.93,1.213,0.959,1.976c0.029,0.763-0.264,1.509-0.806,2.047l-10.2,10.121l-1.513-1.524l10.2-10.122        c0.158-0.156,0.176-0.342,0.172-0.438c-0.003-0.097-0.034-0.279-0.204-0.425l-4.055-3.458c-0.984-0.839-1.245-2.27-0.623-3.4        c1.476-2.682,1.476-2.682,2.168-2.682h5.514c0.324,0,0.588-0.263,0.588-0.587v-12.804c0-0.324-0.265-0.587-0.588-0.587h-4.003        c-1.349,0-2.483-0.966-2.697-2.295c-0.152-0.948-0.455-1.826-0.899-2.608c-0.587-1.034-0.434-2.32,0.38-3.198l4.575-4.925        c0.212-0.229,0.209-0.586-0.011-0.81l-9.095-9.298c-0.224-0.229-0.583-0.241-0.818-0.022l-4.882,4.482        c-0.871,0.801-2.15,0.95-3.185,0.373c-0.847-0.477-1.619-0.815-2.294-1.007c-1.206-0.344-2.017-1.405-2.017-2.639v-5.018        c0-0.324-0.263-0.588-0.587-0.588H536.68c-0.324,0-0.587,0.264-0.587,0.588v3.878c0,1.531-0.972,2.896-2.419,3.394        c-2.023,0.695-3.411,1.202-3.906,1.428c-1.054,0.477-2.299,0.238-3.101-0.597l-4.285-4.454        c-0.15-0.158-0.304-0.197-0.423-0.181c-0.094,0-0.268,0.022-0.418,0.174l-8.92,9.02c-0.215,0.218-0.226,0.568-0.024,0.801        l4.76,5.442c0.757,0.864,0.895,2.113,0.343,3.105c-0.438,0.789-0.737,1.68-0.887,2.645c-0.209,1.338-1.344,2.31-2.699,2.31        h-7.229c-0.324,0-0.587,0.263-0.587,0.587v12.804c0,0.324,0.263,0.587,0.587,0.587h8.744c0.701,0,0.701,0,2.146,2.718        c0.584,1.101,0.353,2.455-0.564,3.299l-4.297,3.949c-0.162,0.148-0.188,0.329-0.189,0.424c-0.003,0.095,0.02,0.275,0.177,0.43        l10.073,9.838L521.473,428.158z"/>
					</g>
				</g>
			</g>
			<g>
				<g>
					<g>
						<path fill="#151D79" d="M535.754,425.109h13.716v-6.977l0.689-0.266c8.232-3.16,13.552-10.936,13.552-19.807        c0-11.782-9.545-21.37-21.28-21.37c-11.759,0-21.325,9.588-21.325,21.37c0,9.032,5.474,16.883,13.945,20l0.702,0.259V425.109z        "/>
					</g>
					<linearGradient id="SVGID_5_" gradientUnits="userSpaceOnUse" x1="520.1572" y1="400.9004" x2="564.6616" y2="400.9004">
						<stop offset="0" style="stop-color:#FFCA02"/>
						<stop offset="0.2395" style="stop-color:#FA9A35"/>
						<stop offset="0.479" style="stop-color:#F67160"/>
						<stop offset="0.6939" style="stop-color:#F35480"/>
						<stop offset="0.8749" style="stop-color:#F14193"/>
						<stop offset="1" style="stop-color:#F03B9A"/>
					</linearGradient>
					<path fill="url(#SVGID_5_)" d="M550.42,426.06h-15.615v-7.078l-0.081-0.029c-8.849-3.257-14.566-11.457-14.566-20.892       c0-12.308,9.993-22.319,22.275-22.319c12.257,0,22.229,10.012,22.229,22.319c0,9.268-5.559,17.391-14.162,20.694l-0.08,0.031       V426.06z M536.705,424.159h11.815v-6.68l1.299-0.498c7.863-3.02,12.943-10.446,12.943-18.921c0-11.259-9.12-20.42-20.33-20.42       c-11.235,0-20.375,9.161-20.375,20.42c0,8.63,5.229,16.13,13.323,19.108l1.324,0.488V424.159z"/>
				</g>
			</g>
			<g>
				<g>
					<path fill="#151D79" d="M547.386,400.817c0-2.408-1.959-4.367-4.368-4.367c-2.408,0-4.368,1.959-4.368,4.367       c0,1.836,1.142,3.404,2.75,4.049v22.759h2.585v-22.557C545.928,404.627,547.386,402.893,547.386,400.817z M543.018,402.601       c-0.982,0-1.783-0.8-1.783-1.783s0.8-1.781,1.783-1.781c0.983,0,1.783,0.798,1.783,1.781S544.001,402.601,543.018,402.601z"/>
				</g>
				<path fill="#FFFFFF" d="M544.936,428.575h-4.486v-23.109c-1.689-0.929-2.75-2.689-2.75-4.648c0-2.932,2.386-5.316,5.318-5.316      c2.932,0,5.317,2.385,5.317,5.316c0,2.233-1.365,4.174-3.4,4.953V428.575z M542.35,426.676h0.686v-22.365l0.74-0.169      c1.542-0.35,2.661-1.748,2.661-3.324c0-1.884-1.533-3.417-3.417-3.417c-1.885,0-3.418,1.533-3.418,3.417      c0,1.399,0.845,2.643,2.153,3.167l0.596,0.239V426.676z M543.019,403.55c-1.507,0-2.734-1.226-2.734-2.732      s1.227-2.732,2.734-2.732c1.507,0,2.732,1.226,2.732,2.732S544.525,403.55,543.019,403.55z M543.019,399.985      c-0.46,0-0.834,0.373-0.834,0.832s0.374,0.832,0.834,0.832c0.459,0,0.833-0.373,0.833-0.832S543.478,399.985,543.019,399.985z"/>
			</g>
			<g>
				<g>
					<g>
						<linearGradient id="SVGID_6_" gradientUnits="userSpaceOnUse" x1="531.6353" y1="429.5801" x2="553.1846" y2="429.5801">
							<stop offset="0" style="stop-color:#964AE2"/>
							<stop offset="1" style="stop-color:#03FFFF"/>
						</linearGradient>
						<path fill="url(#SVGID_6_)" d="M534.195,423.957c-1.411,0-2.56,1.148-2.56,2.56v6.128c0,1.411,1.148,2.56,2.56,2.56h16.43        c1.411,0,2.56-1.148,2.56-2.56v-6.128c0-1.411-1.148-2.56-2.56-2.56H534.195z"/>
					</g>
				</g>
			</g>
		</g>
		<g>
			<g>
				<g>
					<path fill="#A1A9D6" d="M291.35,133.402v-0.144c0-0.438,0.128-0.853,0.371-1.2c0.284-0.406,0.703-0.696,1.176-0.822       l9.426-6.555c0.958-0.655,2.264-0.418,2.917,0.526c0.637,0.926,0.384,2.281-0.528,2.911l-7.497,5.212l7.5,5.213       c0.908,0.627,1.16,1.986,0.528,2.907c-0.658,0.949-1.966,1.188-2.918,0.528l-9.426-6.554c-0.475-0.125-0.896-0.416-1.179-0.823       C291.477,134.251,291.35,133.837,291.35,133.402z M293.25,133.383l-0.95,0.02h0.95c0,0.063,0.017,0.096,0.031,0.116       c0.029,0.041,0.07,0.067,0.122,0.073l0.23,0.03l9.776,6.797c0.088,0.061,0.21,0.04,0.271-0.047       c0.038-0.057,0.122-0.151-0.046-0.266l-9.747-6.775l9.744-6.774c0.172-0.118,0.087-0.21,0.046-0.269       c-0.059-0.086-0.183-0.104-0.275-0.043l-9.767,6.793l-0.227,0.03c-0.038,0.005-0.092,0.023-0.13,0.077       c-0.007,0.01-0.029,0.042-0.029,0.113V133.383z"/>
				</g>
			</g>
			<g>
				<g>
					<path fill="#A1A9D6" d="M301.605,133.409v-0.156c0-0.434,0.129-0.847,0.372-1.194c0.285-0.406,0.705-0.696,1.178-0.822       l9.426-6.555c0.953-0.655,2.257-0.418,2.912,0.526c0.636,0.907,0.394,2.276-0.521,2.91l-7.503,5.213l7.504,5.213       c0.915,0.632,1.161,1.997,0.519,2.913c-0.315,0.456-0.792,0.764-1.342,0.863c-0.55,0.099-1.107-0.021-1.567-0.342l-9.425-6.553       c-0.475-0.125-0.896-0.415-1.18-0.821C301.733,134.25,301.605,133.838,301.605,133.409z M303.506,133.391l-0.951,0.019h0.95       c0,0.056,0.018,0.088,0.033,0.109c0.038,0.054,0.094,0.069,0.124,0.073l0.229,0.03l9.775,6.797       c0.055,0.037,0.108,0.037,0.144,0.032c0.036-0.007,0.084-0.026,0.122-0.079c0.046-0.066,0.125-0.151-0.042-0.267l-9.752-6.774       l9.751-6.774c0.166-0.114,0.086-0.204,0.045-0.263c-0.062-0.09-0.184-0.11-0.272-0.05l-9.769,6.794l-0.226,0.029       c-0.033,0.006-0.093,0.022-0.134,0.08c-0.005,0.008-0.029,0.041-0.029,0.105L303.506,133.391z"/>
				</g>
			</g>
			<g>
				<g>
					<path fill="#A1A9D6" d="M311.862,132.975v-0.165c0-0.434,0.129-0.847,0.373-1.193c0.276-0.401,0.697-0.693,1.175-0.819       l9.423-6.554c0.963-0.655,2.269-0.414,2.919,0.529c0.634,0.907,0.388,2.272-0.526,2.907l-7.501,5.214l7.501,5.21       c0.913,0.633,1.162,1.993,0.525,2.911c-0.655,0.947-1.963,1.184-2.916,0.527l-9.426-6.556c-0.48-0.128-0.901-0.421-1.18-0.827       C311.992,133.819,311.862,133.407,311.862,132.975z M313.764,132.956l-0.951,0.019h0.95c0,0.055,0.015,0.082,0.028,0.101       c0.039,0.058,0.094,0.074,0.132,0.08l0.227,0.03l9.769,6.794c0.089,0.062,0.209,0.043,0.271-0.047       c0.041-0.059,0.122-0.151-0.046-0.269l-9.748-6.771l9.748-6.774c0.168-0.116,0.087-0.208,0.047-0.266       c-0.063-0.091-0.186-0.109-0.281-0.044l-9.76,6.787l-0.227,0.031c-0.031,0.004-0.091,0.02-0.128,0.073       c-0.018,0.025-0.032,0.054-0.032,0.108L313.764,132.956z"/>
				</g>
			</g>
			<g>
				<g>
					<path fill="#A1A9D6" d="M322.12,132.979v-0.172c0-0.422,0.124-0.829,0.361-1.178c0.292-0.414,0.71-0.705,1.183-0.832       l9.432-6.554c0.952-0.655,2.257-0.418,2.914,0.525c0.635,0.916,0.388,2.278-0.527,2.912l-7.499,5.213l7.5,5.21       c0.914,0.632,1.164,1.995,0.527,2.911c-0.321,0.46-0.8,0.769-1.35,0.866c-0.551,0.101-1.107-0.021-1.567-0.343l-9.43-6.553       c-0.473-0.127-0.892-0.416-1.174-0.819C322.244,133.805,322.12,133.398,322.12,132.979z M324.02,132.964l-0.95,0.015h0.95       c0,0.039,0.011,0.076,0.034,0.111c0.022,0.031,0.067,0.057,0.125,0.065l0.226,0.03l9.774,6.794       c0.077,0.054,0.219,0.026,0.271-0.048c0.037-0.055,0.121-0.148-0.049-0.267l-9.748-6.771l9.747-6.774       c0.172-0.119,0.088-0.21,0.049-0.266c-0.061-0.089-0.184-0.109-0.274-0.048l-9.771,6.791l-0.226,0.031       c-0.039,0.005-0.094,0.023-0.134,0.08c-0.014,0.021-0.025,0.058-0.025,0.099V132.964z"/>
				</g>
			</g>
		</g>
		<g>
			<g>
				<g>
					<path fill="#032895" d="M33.2,299.248h-3.481l-1.384-3.601h-6.337l-1.308,3.601h-3.396l6.175-15.852h3.385L33.2,299.248z        M27.307,292.976l-2.185-5.882l-2.141,5.882H27.307z"/>
				</g>
			</g>
			<g>
				<g>
					<path fill="#032895" d="M34.746,299.248v-15.852h3.039v5.709c0.937-1.067,2.047-1.602,3.331-1.602       c1.399,0,2.556,0.507,3.471,1.52c0.916,1.014,1.374,2.468,1.374,4.364c0,1.961-0.467,3.471-1.401,4.531       c-0.933,1.06-2.067,1.588-3.401,1.588c-0.655,0-1.303-0.163-1.941-0.491c-0.638-0.329-1.188-0.813-1.649-1.455v1.688H34.746z        M37.763,293.258c0,1.189,0.188,2.069,0.563,2.639c0.526,0.807,1.226,1.211,2.098,1.211c0.67,0,1.241-0.287,1.714-0.86       c0.471-0.573,0.708-1.476,0.708-2.709c0-1.312-0.239-2.258-0.713-2.839c-0.476-0.579-1.085-0.869-1.828-0.869       c-0.729,0-1.334,0.283-1.817,0.849C38.004,291.245,37.763,292.104,37.763,293.258z"/>
				</g>
			</g>
			<g>
				<g>
					<path fill="#032895" d="M58.417,291.159l-2.996,0.541c-0.1-0.599-0.329-1.049-0.687-1.352c-0.356-0.303-0.82-0.454-1.389-0.454       c-0.757,0-1.361,0.261-1.812,0.784c-0.45,0.523-0.675,1.396-0.675,2.622c0,1.361,0.228,2.324,0.687,2.887       s1.072,0.845,1.843,0.845c0.577,0,1.049-0.165,1.417-0.493c0.367-0.327,0.627-0.892,0.778-1.692l2.984,0.509       c-0.31,1.369-0.905,2.403-1.784,3.104c-0.879,0.699-2.058,1.048-3.536,1.048c-1.68,0-3.019-0.528-4.017-1.588       c-0.999-1.061-1.498-2.527-1.498-4.401c0-1.896,0.502-3.373,1.503-4.429c1.002-1.056,2.357-1.585,4.066-1.585       c1.399,0,2.51,0.302,3.336,0.903C57.464,289.01,58.057,289.928,58.417,291.159z"/>
				</g>
			</g>
		</g>
		<g>
			<path fill="#A1A9D6" d="M512.021,266.215c-0.674,0.204-1.193,0.48-1.547,0.825c-0.356,0.356-0.595,0.816-0.73,1.394     c-0.135,0.575-0.201,1.583-0.201,3.043c0,0.893-0.03,1.518-0.097,1.883c-0.076,0.48-0.211,0.873-0.413,1.201     c-0.202,0.317-0.443,0.538-0.72,0.681c-0.278,0.135-0.691,0.212-1.239,0.251v2.698c0.691,0.037,1.199,0.182,1.536,0.45     c0.338,0.261,0.585,0.683,0.75,1.287c0.116,0.414,0.183,1.307,0.183,2.688c0,1.191,0.057,2.063,0.191,2.613     c0.125,0.555,0.376,1.017,0.75,1.392c0.373,0.375,0.826,0.644,1.364,0.805c0.545,0.165,1.325,0.252,2.343,0.252h0.595v-2.709     c-0.806,0-1.335-0.048-1.576-0.153c-0.238-0.105-0.423-0.25-0.545-0.452c-0.116-0.191-0.174-0.536-0.174-1.027     c0-0.345-0.027-1.144-0.097-2.389c-0.036-0.826-0.142-1.481-0.288-1.97c-0.152-0.489-0.363-0.903-0.653-1.249     c-0.278-0.337-0.642-0.634-1.084-0.893c0.499-0.327,0.873-0.634,1.124-0.941c0.24-0.297,0.442-0.671,0.594-1.134     c0.155-0.47,0.261-1.067,0.298-1.813c0.069-1.314,0.106-2.21,0.106-2.689c0-0.46,0.059-0.787,0.164-0.979     c0.116-0.194,0.289-0.337,0.529-0.432c0.229-0.097,0.768-0.146,1.603-0.146v-2.689h-0.595     C513.2,266.012,512.479,266.081,512.021,266.215z"/>
			<path fill="#A1A9D6" d="M532.802,278.19v-2.698c-0.691-0.039-1.202-0.192-1.537-0.453c-0.336-0.258-0.584-0.69-0.759-1.286     c-0.116-0.423-0.172-1.315-0.172-2.689c0-1.189-0.059-2.055-0.191-2.601c-0.135-0.559-0.386-1.027-0.75-1.404     c-0.365-0.373-0.827-0.64-1.365-0.806c-0.546-0.151-1.325-0.241-2.333-0.241h-0.605v2.689c0.855,0,1.402,0.059,1.642,0.155     c0.251,0.105,0.423,0.249,0.509,0.431c0.096,0.193,0.145,0.567,0.155,1.126c0.037,1.795,0.106,2.946,0.182,3.476     c0.125,0.757,0.374,1.392,0.72,1.891c0.258,0.346,0.662,0.69,1.22,1.057c-0.433,0.238-0.78,0.529-1.058,0.864     c-0.277,0.315-0.489,0.72-0.651,1.19c-0.166,0.47-0.27,1.095-0.307,1.871c-0.06,1.299-0.099,2.171-0.099,2.634     c-0.007,0.459-0.066,0.786-0.182,0.979c-0.116,0.191-0.298,0.336-0.545,0.441c-0.251,0.097-0.78,0.143-1.586,0.143v2.709h0.605     c0.981,0,1.708-0.066,2.161-0.201c0.681-0.201,1.209-0.479,1.566-0.826c0.354-0.347,0.596-0.815,0.721-1.392     c0.133-0.587,0.201-1.605,0.201-3.056c0-0.893,0.027-1.517,0.096-1.871c0.076-0.481,0.222-0.885,0.423-1.201     c0.192-0.314,0.432-0.547,0.71-0.681c0.277-0.136,0.681-0.222,1.238-0.249H532.802z"/>
			<rect x="515.353" y="272.208" fill="#A1A9D6" width="9.164" height="2.43"/>
			<rect x="515.353" y="275.625" fill="#A1A9D6" width="9.164" height="2.43"/>
			<rect x="515.353" y="279.042" fill="#A1A9D6" width="5.316" height="2.43"/>
		</g>
		<g id="XMLID_1047_">
			<g>
				<g>
					<path fill="#151D79" d="M448.285,255.16c-0.561,0.28-1.679,0.56-3.115,0.56c-3.324,0-5.826-2.099-5.826-5.965       c0-3.692,2.502-6.194,6.159-6.194c1.47,0,2.396,0.315,2.798,0.525l-0.367,1.242c-0.578-0.279-1.4-0.489-2.379-0.489       c-2.765,0-4.602,1.767-4.602,4.863c0,2.887,1.663,4.741,4.532,4.741c0.927,0,1.872-0.192,2.484-0.49L448.285,255.16z"/>
				</g>
				<g>
					<path fill="#151D79" d="M449.979,253.69c0.683,0.421,1.679,0.771,2.729,0.771c1.557,0,2.467-0.822,2.467-2.014       c0-1.102-0.63-1.731-2.222-2.343c-1.924-0.683-3.114-1.681-3.114-3.343c0-1.838,1.522-3.202,3.814-3.202       c1.208,0,2.083,0.28,2.607,0.577l-0.419,1.242c-0.385-0.209-1.172-0.559-2.239-0.559c-1.61,0-2.222,0.963-2.222,1.766       c0,1.103,0.717,1.646,2.344,2.275c1.995,0.77,3.01,1.732,3.01,3.464c0,1.82-1.348,3.394-4.129,3.394       c-1.137,0-2.379-0.331-3.01-0.751L449.979,253.69z"/>
				</g>
				<g>
					<path fill="#151D79" d="M458.602,253.69c0.682,0.421,1.68,0.771,2.729,0.771c1.557,0,2.467-0.822,2.467-2.014       c0-1.102-0.63-1.731-2.222-2.343c-1.925-0.683-3.114-1.681-3.114-3.343c0-1.838,1.522-3.202,3.813-3.202       c1.207,0,2.083,0.28,2.606,0.577l-0.419,1.242c-0.385-0.209-1.172-0.559-2.239-0.559c-1.61,0-2.222,0.963-2.222,1.766       c0,1.103,0.717,1.646,2.344,2.275c1.994,0.77,3.009,1.732,3.009,3.464c0,1.82-1.347,3.394-4.128,3.394       c-1.138,0-2.38-0.331-3.01-0.751L458.602,253.69z"/>
				</g>
				<g>
					<path fill="#151D79" d="M467.26,253.779c0.438,0.279,1.452,0.718,2.52,0.718c1.977,0,2.589-1.262,2.571-2.205       c-0.018-1.592-1.452-2.274-2.939-2.274h-0.857v-1.155h0.857c1.12,0,2.537-0.577,2.537-1.925c0-0.909-0.577-1.714-1.994-1.714       c-0.91,0-1.785,0.402-2.275,0.751l-0.403-1.118c0.595-0.438,1.75-0.875,2.975-0.875c2.239,0,3.254,1.329,3.254,2.712       c0,1.171-0.701,2.169-2.101,2.677v0.034c1.4,0.279,2.538,1.33,2.538,2.922c0,1.82-1.417,3.412-4.146,3.412       c-1.278,0-2.397-0.402-2.958-0.77L467.26,253.779z"/>
				</g>
			</g>
		</g>
		<g id="XMLID_870_">
			<g>
				<g>
					<path fill="#151D79" d="M500.173,325.974v5.247h6.065v-5.247h1.636v12.539h-1.636v-5.878h-6.065v5.878h-1.619v-12.539H500.173z       "/>
				</g>
				<g>
					<path fill="#151D79" d="M513.064,327.351h-3.813v-1.377h9.284v1.377h-3.833v11.162h-1.638V327.351z"/>
				</g>
				<g>
					<path fill="#151D79" d="M530.496,333.006c-0.093-1.748-0.204-3.851-0.186-5.414h-0.056c-0.429,1.471-0.949,3.033-1.582,4.763       l-2.214,6.084h-1.229l-2.027-5.971c-0.596-1.769-1.098-3.388-1.452-4.876h-0.037c-0.036,1.563-0.13,3.666-0.241,5.544       l-0.336,5.377h-1.545l0.875-12.539h2.066l2.141,6.065c0.52,1.544,0.948,2.921,1.264,4.223h0.056       c0.316-1.265,0.763-2.642,1.321-4.223l2.232-6.065h2.066l0.78,12.539h-1.581L530.496,333.006z"/>
				</g>
				<g>
					<path fill="#151D79" d="M534.884,325.974h1.62v11.182h5.358v1.357h-6.978V325.974z"/>
				</g>
				<g>
					<path fill="#151D79" d="M550.307,327.797h-4.615l-0.465,3.107c0.279-0.038,0.54-0.075,0.986-0.075       c0.931,0,1.86,0.205,2.605,0.651c0.949,0.54,1.73,1.582,1.73,3.108c0,2.361-1.879,4.13-4.502,4.13       c-1.32,0-2.438-0.373-3.014-0.744l0.41-1.247c0.501,0.297,1.488,0.67,2.585,0.67c1.544,0,2.865-1.006,2.865-2.623       c-0.019-1.563-1.061-2.68-3.479-2.68c-0.688,0-1.229,0.074-1.674,0.13l0.782-5.805h5.786V327.797z"/>
				</g>
			</g>
		</g>
		<g>
			<g>
				<g>
					<g>
						<path fill="#4134EC" d="M122.18,260.024V408.46c0,6.614,5.36,11.976,11.975,11.976h224.583        c6.613,0,11.974-5.361,11.974-11.976V260.024c0-6.612-5.361-11.974-11.974-11.974H134.154        C127.54,248.051,122.18,253.412,122.18,260.024z"/>
					</g>
				</g>
				<g>
					<g>
						<path fill="#CCCCD1" d="M131.936,260.024V408.46c0,6.614,5.36,11.976,11.973,11.976h224.584        c6.613,0,11.974-5.361,11.974-11.976V260.024c0-6.612-5.361-11.974-11.974-11.974H143.909        C137.296,248.051,131.936,253.412,131.936,260.024z"/>
					</g>
				</g>
				<g>
					<g>
						<linearGradient id="SVGID_7_" gradientUnits="userSpaceOnUse" x1="143.0547" y1="334.2422" x2="367.8301" y2="334.2422">
							<stop offset="0" style="stop-color:#F6C726"/>
							<stop offset="1" style="stop-color:#E94C04"/>
						</linearGradient>
						<rect x="143.055" y="261.771" fill="url(#SVGID_7_)" width="224.775" height="144.942"/>
					</g>
				</g>
				<g>
					<g>
						<path fill="#F1EFF3" d="M476.203,428.564c0-4.488-3.638-8.125-8.126-8.125H249.908c-6.169,0-11.216,3.651-11.216,8.119        c0,4.479,5.047,8.132,11.216,8.132h218.169C472.565,436.69,476.203,433.053,476.203,428.564L476.203,428.564z"/>
					</g>
				</g>
				<g>
					<path fill="#4134EC" d="M392.681,420.738v0.69c0,2.54-2.064,4.594-4.604,4.594h-68.682c-2.529,0-4.592-2.054-4.592-4.594v-0.69       H392.681z"/>
				</g>
				<g>
					<g>
						<path fill="#4134EC" d="M263.055,428.559c0,4.479-3.938,8.132-8.76,8.132H142.518c-4.814,0-8.752-3.652-8.752-8.132        c0-4.468,3.938-8.119,8.752-8.119h111.777C259.117,420.439,263.055,424.091,263.055,428.559z"/>
					</g>
				</g>
			</g>
		</g>
		<g>
			<g>
				<g>
					<g>
						<g>
							<g>
								<rect x="170.949" y="163.125" fill="#F1EFF3" width="188.176" height="243.589"/>
							</g>
						</g>
					</g>
				</g>
			</g>
			<g id="XMLID_580_">
				<g>
					<rect x="182.734" y="177.248" fill-rule="evenodd" clip-rule="evenodd" fill="#4134EC" width="86.452" height="3.396"/>
				</g>
				<g>
					<rect x="182.734" y="185.644" fill-rule="evenodd" clip-rule="evenodd" fill="#151D79" width="17.506" height="3.396"/>
				</g>
				<g>
					<rect x="182.734" y="194.019" fill-rule="evenodd" clip-rule="evenodd" fill="#CCCCD1" width="37.424" height="3.396"/>
				</g>
				<g id="XMLID_2717_">
					<rect x="192.125" y="202.412" fill-rule="evenodd" clip-rule="evenodd" fill="#151D79" width="30.595" height="3.397"/>
				</g>
				<g id="XMLID_2716_">
					<rect x="192.125" y="210.788" fill-rule="evenodd" clip-rule="evenodd" fill="#151D79" width="30.595" height="3.396"/>
				</g>
				<g id="XMLID_2715_">
					<rect x="213.359" y="219.182" fill-rule="evenodd" clip-rule="evenodd" fill="#151D79" width="29.755" height="3.396"/>
				</g>
				<g id="XMLID_2714_">
					<rect x="211.18" y="185.644" fill-rule="evenodd" clip-rule="evenodd" fill="#CCCCD1" width="55.444" height="3.396"/>
				</g>
				<g id="XMLID_2713_">
					<rect x="274.525" y="185.644" fill-rule="evenodd" clip-rule="evenodd" fill="#CCCCD1" width="26.477" height="3.396"/>
				</g>
				<g id="XMLID_2712_">
					<rect x="311.055" y="185.644" fill-rule="evenodd" clip-rule="evenodd" fill="#CCCCD1" width="35.743" height="3.396"/>
				</g>
				<g id="XMLID_2711_">
					<rect x="228.919" y="194.019" fill-rule="evenodd" clip-rule="evenodd" fill="#151D79" width="31.193" height="3.396"/>
				</g>
				<g id="XMLID_2710_">
					<rect x="232.056" y="202.412" fill-rule="evenodd" clip-rule="evenodd" fill="#CCCCD1" width="17.858" height="3.397"/>
				</g>
				<g id="XMLID_2709_">
					<rect x="232.056" y="210.788" fill-rule="evenodd" clip-rule="evenodd" fill="#CCCCD1" width="30.594" height="3.396"/>
				</g>
				<g id="XMLID_2708_">
					<rect x="258.413" y="202.412" fill-rule="evenodd" clip-rule="evenodd" fill="#CCCCD1" width="33.994" height="3.397"/>
				</g>
				<g id="XMLID_2707_">
					<rect x="299.207" y="202.412" fill-rule="evenodd" clip-rule="evenodd" fill="#CCCCD1" width="17.833" height="3.397"/>
				</g>
				<g id="XMLID_2706_">
					<rect x="324.702" y="202.412" fill-rule="evenodd" clip-rule="evenodd" fill="#CCCCD1" width="22.097" height="3.397"/>
				</g>
				<g id="XMLID_2705_">
					<rect x="269.449" y="210.788" fill-rule="evenodd" clip-rule="evenodd" fill="#CCCCD1" width="38.638" height="3.396"/>
				</g>
				<g id="XMLID_2704_">
					<rect x="313.856" y="210.788" fill-rule="evenodd" clip-rule="evenodd" fill="#CCCCD1" width="11.539" height="3.396"/>
				</g>
				<g id="XMLID_2703_">
					<rect x="251.614" y="219.182" fill-rule="evenodd" clip-rule="evenodd" fill="#CCCCD1" width="22.121" height="3.396"/>
				</g>
				<g id="XMLID_2702_">
					<rect x="192.125" y="235.952" fill-rule="evenodd" clip-rule="evenodd" fill="#151D79" width="30.595" height="3.396"/>
				</g>
				<g id="XMLID_2701_">
					<rect x="192.125" y="244.348" fill-rule="evenodd" clip-rule="evenodd" fill="#151D79" width="30.595" height="3.396"/>
				</g>
				<g id="XMLID_2700_">
					<rect x="232.056" y="235.952" fill-rule="evenodd" clip-rule="evenodd" fill="#CCCCD1" width="17.858" height="3.396"/>
				</g>
				<g id="XMLID_2699_">
					<rect x="232.056" y="244.348" fill-rule="evenodd" clip-rule="evenodd" fill="#CCCCD1" width="27.554" height="3.396"/>
				</g>
				<g id="XMLID_2698_">
					<rect x="258.413" y="235.952" fill-rule="evenodd" clip-rule="evenodd" fill="#CCCCD1" width="26.142" height="3.396"/>
				</g>
				<g id="XMLID_2697_">
					<rect x="289.774" y="235.952" fill-rule="evenodd" clip-rule="evenodd" fill="#CCCCD1" width="13.741" height="3.396"/>
				</g>
				<g id="XMLID_2696_">
					<rect x="309.404" y="235.952" fill-rule="evenodd" clip-rule="evenodd" fill="#CCCCD1" width="16.997" height="3.396"/>
				</g>
				<g id="XMLID_2695_">
					<rect x="286.422" y="244.348" fill-rule="evenodd" clip-rule="evenodd" fill="#CCCCD1" width="30.618" height="3.396"/>
				</g>
				<g id="XMLID_2694_">
					<rect x="192.125" y="252.722" fill-rule="evenodd" clip-rule="evenodd" fill="#151D79" width="30.595" height="3.396"/>
				</g>
				<g id="XMLID_2693_">
					<rect x="192.125" y="261.116" fill-rule="evenodd" clip-rule="evenodd" fill="#151D79" width="30.595" height="3.396"/>
				</g>
				<g id="XMLID_2692_">
					<rect x="232.056" y="252.722" fill-rule="evenodd" clip-rule="evenodd" fill="#CCCCD1" width="17.858" height="3.396"/>
				</g>
				<g id="XMLID_2691_">
					<rect x="232.056" y="261.116" fill-rule="evenodd" clip-rule="evenodd" fill="#CCCCD1" width="56.09" height="3.396"/>
				</g>
				<g id="XMLID_2690_">
					<rect x="258.413" y="252.722" fill-rule="evenodd" clip-rule="evenodd" fill="#CCCCD1" width="33.994" height="3.396"/>
				</g>
				<g id="XMLID_2689_">
					<rect x="299.207" y="252.722" fill-rule="evenodd" clip-rule="evenodd" fill="#CCCCD1" width="17.833" height="3.396"/>
				</g>
				<g id="XMLID_2688_">
					<rect x="324.702" y="252.722" fill-rule="evenodd" clip-rule="evenodd" fill="#CCCCD1" width="22.097" height="3.396"/>
				</g>
				<g id="XMLID_2687_">
					<rect x="294.945" y="261.116" fill-rule="evenodd" clip-rule="evenodd" fill="#CCCCD1" width="31.456" height="3.396"/>
				</g>
				<g id="XMLID_2686_">
					<rect x="265.738" y="244.348" fill-rule="evenodd" clip-rule="evenodd" fill="#CCCCD1" width="13.023" height="3.396"/>
				</g>
				<g>
					<rect x="182.734" y="277.887" fill-rule="evenodd" clip-rule="evenodd" fill="#151D79" width="17.506" height="3.396"/>
				</g>
				<g>
					<rect x="182.734" y="286.261" fill-rule="evenodd" clip-rule="evenodd" fill="#CCCCD1" width="37.424" height="3.396"/>
				</g>
				<g id="XMLID_2683_">
					<rect x="192.125" y="294.655" fill-rule="evenodd" clip-rule="evenodd" fill="#151D79" width="30.595" height="3.396"/>
				</g>
				<g id="XMLID_2682_">
					<rect x="192.125" y="303.03" fill-rule="evenodd" clip-rule="evenodd" fill="#151D79" width="30.595" height="3.417"/>
				</g>
				<g id="XMLID_2681_">
					<rect x="213.359" y="311.425" fill-rule="evenodd" clip-rule="evenodd" fill="#151D79" width="29.755" height="3.396"/>
				</g>
				<g id="XMLID_2680_">
					<rect x="211.18" y="277.886" fill-rule="evenodd" clip-rule="evenodd" fill="#CCCCD1" width="30.763" height="3.396"/>
				</g>
				<g id="XMLID_2679_">
					<rect x="249.819" y="277.886" fill-rule="evenodd" clip-rule="evenodd" fill="#CCCCD1" width="15.537" height="3.396"/>
				</g>
				<g id="XMLID_2678_">
					<rect x="275.41" y="277.886" fill-rule="evenodd" clip-rule="evenodd" fill="#CCCCD1" width="49.41" height="3.396"/>
				</g>
				<g id="XMLID_2677_">
					<rect x="228.919" y="286.261" fill-rule="evenodd" clip-rule="evenodd" fill="#151D79" width="31.193" height="3.396"/>
				</g>
				<g id="XMLID_2676_">
					<rect x="232.056" y="294.655" fill-rule="evenodd" clip-rule="evenodd" fill="#CCCCD1" width="34.856" height="3.396"/>
				</g>
				<g id="XMLID_2675_">
					<rect x="232.056" y="303.03" fill-rule="evenodd" clip-rule="evenodd" fill="#CCCCD1" width="23.795" height="3.417"/>
				</g>
				<g id="XMLID_2674_">
					<rect x="275.41" y="294.655" fill-rule="evenodd" clip-rule="evenodd" fill="#CCCCD1" width="25.902" height="3.396"/>
				</g>
				<g id="XMLID_2673_">
					<rect x="262.65" y="303.03" fill-rule="evenodd" clip-rule="evenodd" fill="#CCCCD1" width="45.438" height="3.417"/>
				</g>
				<g id="XMLID_2672_">
					<rect x="313.856" y="303.03" fill-rule="evenodd" clip-rule="evenodd" fill="#CCCCD1" width="11.539" height="3.417"/>
				</g>
				<g id="XMLID_2671_">
					<rect x="251.614" y="311.425" fill-rule="evenodd" clip-rule="evenodd" fill="#CCCCD1" width="22.121" height="3.396"/>
				</g>
				<g id="XMLID_2670_">
					<rect x="278.641" y="311.425" fill-rule="evenodd" clip-rule="evenodd" fill="#CCCCD1" width="41.177" height="3.396"/>
				</g>
				<g id="XMLID_2669_">
					<rect x="325.945" y="311.425" fill-rule="evenodd" clip-rule="evenodd" fill="#CCCCD1" width="12.306" height="3.396"/>
				</g>
				<g id="XMLID_2668_">
					<rect x="192.125" y="328.194" fill-rule="evenodd" clip-rule="evenodd" fill="#151D79" width="30.595" height="3.396"/>
				</g>
				<g id="XMLID_2667_">
					<rect x="192.125" y="336.589" fill-rule="evenodd" clip-rule="evenodd" fill="#151D79" width="30.595" height="3.397"/>
				</g>
				<g id="XMLID_2666_">
					<rect x="232.056" y="328.194" fill-rule="evenodd" clip-rule="evenodd" fill="#CCCCD1" width="50.369" height="3.396"/>
				</g>
				<g id="XMLID_2665_">
					<rect x="232.056" y="336.589" fill-rule="evenodd" clip-rule="evenodd" fill="#CCCCD1" width="27.554" height="3.397"/>
				</g>
				<g id="XMLID_2664_">
					<rect x="289.774" y="328.194" fill-rule="evenodd" clip-rule="evenodd" fill="#CCCCD1" width="13.741" height="3.396"/>
				</g>
				<g id="XMLID_2663_">
					<rect x="309.404" y="328.194" fill-rule="evenodd" clip-rule="evenodd" fill="#CCCCD1" width="16.997" height="3.396"/>
				</g>
				<g id="XMLID_2662_">
					<rect x="286.422" y="336.589" fill-rule="evenodd" clip-rule="evenodd" fill="#CCCCD1" width="30.618" height="3.397"/>
				</g>
				<g id="XMLID_2661_">
					<rect x="265.738" y="336.589" fill-rule="evenodd" clip-rule="evenodd" fill="#CCCCD1" width="13.023" height="3.397"/>
				</g>
				<g>
					<rect x="182.734" y="350.343" fill-rule="evenodd" clip-rule="evenodd" fill="#151D79" width="17.506" height="3.396"/>
				</g>
				<g>
					<rect x="182.734" y="358.717" fill-rule="evenodd" clip-rule="evenodd" fill="#CCCCD1" width="37.424" height="3.396"/>
				</g>
				<g id="XMLID_2658_">
					<rect x="192.125" y="367.113" fill-rule="evenodd" clip-rule="evenodd" fill="#151D79" width="30.595" height="3.396"/>
				</g>
				<g id="XMLID_2657_">
					<rect x="192.125" y="375.486" fill-rule="evenodd" clip-rule="evenodd" fill="#151D79" width="30.595" height="3.396"/>
				</g>
				<g id="XMLID_2656_">
					<rect x="213.359" y="383.882" fill-rule="evenodd" clip-rule="evenodd" fill="#151D79" width="29.755" height="3.396"/>
				</g>
				<g id="XMLID_2655_">
					<rect x="211.18" y="350.343" fill-rule="evenodd" clip-rule="evenodd" fill="#CCCCD1" width="30.763" height="3.396"/>
				</g>
				<g id="XMLID_2654_">
					<rect x="249.819" y="350.343" fill-rule="evenodd" clip-rule="evenodd" fill="#CCCCD1" width="15.537" height="3.396"/>
				</g>
				<g id="XMLID_2633_">
					<rect x="275.41" y="350.343" fill-rule="evenodd" clip-rule="evenodd" fill="#CCCCD1" width="71.388" height="3.396"/>
				</g>
				<g id="XMLID_2632_">
					<rect x="228.919" y="358.717" fill-rule="evenodd" clip-rule="evenodd" fill="#151D79" width="31.193" height="3.396"/>
				</g>
				<g id="XMLID_2631_">
					<rect x="232.056" y="367.113" fill-rule="evenodd" clip-rule="evenodd" fill="#CCCCD1" width="34.856" height="3.396"/>
				</g>
				<g id="XMLID_2630_">
					<rect x="232.056" y="375.486" fill-rule="evenodd" clip-rule="evenodd" fill="#CCCCD1" width="23.795" height="3.396"/>
				</g>
				<g id="XMLID_2629_">
					<rect x="275.41" y="367.113" fill-rule="evenodd" clip-rule="evenodd" fill="#CCCCD1" width="25.902" height="3.396"/>
				</g>
				<g id="XMLID_2628_">
					<rect x="308.111" y="367.113" fill-rule="evenodd" clip-rule="evenodd" fill="#CCCCD1" width="15.752" height="3.396"/>
				</g>
				<g id="XMLID_2627_">
					<rect x="331.524" y="367.113" fill-rule="evenodd" clip-rule="evenodd" fill="#CCCCD1" width="15.274" height="3.396"/>
				</g>
				<g id="XMLID_2626_">
					<rect x="262.65" y="375.486" fill-rule="evenodd" clip-rule="evenodd" fill="#CCCCD1" width="45.438" height="3.396"/>
				</g>
				<g id="XMLID_2567_">
					<rect x="313.856" y="375.486" fill-rule="evenodd" clip-rule="evenodd" fill="#CCCCD1" width="11.539" height="3.396"/>
				</g>
				<g id="XMLID_2505_">
					<rect x="251.614" y="383.882" fill-rule="evenodd" clip-rule="evenodd" fill="#CCCCD1" width="22.121" height="3.396"/>
				</g>
			</g>
		</g>
		<g>
			<g id="XMLID_581_">
				<path fill="#151D79" d="M121.768,377.483l6.518,1.347l2.845-13.758l-6.518-1.348c0.115-5.488-0.95-10.814-2.999-15.686      l5.563-3.661l-7.717-11.743l-5.563,3.661c-2.88-3.003-6.268-5.56-10.062-7.521c-0.979-0.51-1.995-0.979-3.03-1.405      c-0.038-0.018-0.087-0.031-0.125-0.05l1.359-6.521l-13.758-2.846l-1.351,6.525c-1.44-0.032-2.874,0.021-4.285,0.148      c-3.976,0.356-7.814,1.329-11.409,2.847l-3.661-5.563l-11.733,7.713l3.653,5.56c-3.815,3.662-6.9,8.132-8.974,13.218      l-6.518-1.347l-2.846,13.758l6.519,1.348c-0.115,5.488,0.939,10.818,2.995,15.693l-5.56,3.653l7.709,11.739l5.571-3.657      c3.658,3.822,8.128,6.908,13.217,8.975l-1.351,6.524l13.75,2.843l1.348-6.519c1.45,0.029,2.88-0.017,4.292-0.145      c3.969-0.36,7.811-1.34,11.401-2.85l3.661,5.564l11.736-7.721l-3.652-5.562C116.609,387.038,119.694,382.569,121.768,377.483z       M88.73,391.239c-2.72,0.249-5.527,0.107-8.338-0.479c-15.363-3.176-25.247-18.207-22.071-33.57      c2.6-12.554,13.1-21.438,25.239-22.546c2.72-0.248,5.526-0.107,8.338,0.479c1.62,0.338,3.173,0.8,4.667,1.392      c1.046,0.402,2.062,0.873,3.034,1.396c10.789,5.795,16.978,18.174,14.367,30.789C111.369,381.248,100.87,390.132,88.73,391.239z       M86.165,392.307c-2.001,0-4-0.206-5.967-0.617c-7.677-1.585-14.278-6.069-18.587-12.623c-4.309-6.552-5.808-14.39-4.22-22.068      c2.641-12.754,13.124-22.117,26.083-23.301c2.882-0.263,5.783-0.096,8.619,0.496c1.663,0.345,3.285,0.829,4.823,1.437      c1.049,0.404,2.106,0.891,3.135,1.445c11.355,6.1,17.461,19.184,14.846,31.818c-2.638,12.749-13.12,22.109-26.08,23.292l0,0      C87.934,392.266,87.048,392.307,86.165,392.307z M86.125,335.477c-0.827,0-1.653,0.038-2.478,0.113      c-12.121,1.106-21.924,9.864-24.395,21.793c-1.484,7.181-0.083,14.512,3.947,20.641s10.204,10.321,17.386,11.806      c2.653,0.554,5.364,0.71,8.059,0.464l0,0c12.122-1.105,21.924-9.86,24.392-21.786c2.445-11.816-3.265-24.054-13.886-29.759      c-0.958-0.517-1.942-0.97-2.925-1.348c-1.443-0.571-2.961-1.023-4.518-1.347C89.865,335.669,87.997,335.477,86.125,335.477z"/>
			</g>
			<g>
				<rect x="27.326" y="376.89" fill-rule="evenodd" clip-rule="evenodd" fill="#B98705" width="17.304" height="58.34"/>
			</g>
			<g>
				<polygon fill-rule="evenodd" clip-rule="evenodd" fill="#F5C826" points="16.959,386.998 34.263,386.998 44.629,376.89       27.326,376.89     "/>
			</g>
			<g>
				<rect x="44.629" y="376.89" fill-rule="evenodd" clip-rule="evenodd" fill="#F5C826" width="86.272" height="58.34"/>
			</g>
			<g>
				<polygon fill-rule="evenodd" clip-rule="evenodd" fill="#F8DE78" points="141.268,386.998 54.995,386.998 44.629,376.89       130.901,376.89     "/>
			</g>
		</g>
		<g>
			<g>
				<g>
					<path fill="#FFFFFF" d="M451.008,377.04l8.766-8.636l22.774,23.115c2.362,2.397,2.333,6.255-0.064,8.616l-0.088,0.086       c-2.397,2.361-6.254,2.333-8.615-0.064L451.008,377.04z"/>
				</g>
			</g>
			<g>
				<g>
					<g>
						<path fill="#FFFFFF" d="M451.008,377.04l8.766-8.636l22.774,23.115c2.362,2.397,2.333,6.255-0.064,8.616l-0.088,0.086        c-2.397,2.361-6.254,2.333-8.615-0.064L451.008,377.04z"/>
					</g>
				</g>
			</g>
			<g>
				<g>
					<g>
						<path fill="#151D79" d="M456.319,389.772l16.12-15.881l41.881,42.51c4.343,4.407,4.29,11.501-0.119,15.844l-0.161,0.159        c-4.408,4.341-11.5,4.288-15.842-0.12L456.319,389.772z"/>
					</g>
				</g>
			</g>
			<g>
				<path fill="#CCCCD1" d="M451.008,377.04l8.766-8.636l22.774,23.115c2.362,2.397,2.333,6.255-0.064,8.616l-0.088,0.086      c-2.397,2.361-6.254,2.333-8.615-0.064L451.008,377.04z"/>
			</g>
			<g>
				<g>
					<g>
						<path fill="#151D79" d="M456.319,389.772l16.12-15.881l41.881,42.51c4.343,4.407,4.29,11.501-0.119,15.844l-0.161,0.159        c-4.408,4.341-11.5,4.288-15.842-0.12L456.319,389.772z"/>
					</g>
				</g>
			</g>
			<g>
				<g>
					<path fill="#151D79" d="M456.319,389.772l16.12-15.881l41.881,42.51c4.343,4.407,4.29,11.501-0.119,15.844l-0.161,0.159       c-4.408,4.341-11.5,4.288-15.842-0.12L456.319,389.772z"/>
				</g>
			</g>
			<g>
				<path fill="#5848EF" d="M374.25,339.562c-0.137,13.847,5.654,26.58,15.06,35.641c7.761,7.497,17.994,12.477,29.374,13.507      c1.314,0.111,2.67,0.174,3.974,0.177c6.704,0.075,13.2-1.185,19.32-3.725c0.994-0.419,1.974-0.878,2.931-1.356      c2.699-1.357,5.264-2.958,7.687-4.793c1.689-1.297,3.314-2.701,4.836-4.192c1.472-1.453,2.858-2.993,4.103-4.599      c6.763-8.515,10.388-18.812,10.492-29.743c0.117-13.064-4.854-25.378-14.021-34.715c-8.148-8.287-18.958-13.41-30.426-14.453      c-1.324-0.104-2.658-0.199-4.006-0.2c-13.056-0.115-25.431,4.909-34.751,14.089C379.523,314.353,374.332,326.555,374.25,339.562      z M394.737,311.208c7.744-7.624,17.957-11.764,28.756-11.671c1.104,0.024,2.231,0.072,3.315,0.165      c9.513,0.861,18.436,5.125,25.167,11.99c7.603,7.705,11.729,17.898,11.609,28.694c-0.101,10.735-4.381,20.826-12.068,28.423      l-0.72,0.685c-1.35,1.24-2.768,2.391-4.229,3.429c-7.031,4.999-15.279,7.608-23.842,7.544c-1.095-0.024-2.188-0.057-3.277-0.178      c-11.636-1.052-21.816-7.087-28.497-15.864c-5.266-6.93-8.361-15.555-8.275-24.784      C382.793,328.862,387.073,318.772,394.737,311.208z M423.035,381.418c-0.104,0-0.209,0-0.315-0.001      c-1.14-0.025-2.244-0.058-3.376-0.184c-11.453-1.035-22.083-6.953-29.146-16.233c-5.627-7.404-8.557-16.177-8.471-25.367      c0.12-11.028,4.503-21.363,12.343-29.102l0.001-0.001c7.92-7.799,18.354-12.047,29.431-11.943      c1.336,0.03,2.408,0.084,3.389,0.17c9.719,0.879,18.867,5.236,25.762,12.271c7.783,7.886,12.003,18.317,11.881,29.369      c-0.104,10.988-4.489,21.319-12.35,29.089l-0.733,0.697c-1.4,1.287-2.854,2.465-4.334,3.515      C440.01,378.75,431.688,381.418,423.035,381.418z M395.404,311.884c-7.48,7.384-11.664,17.246-11.778,27.768      c-0.081,8.764,2.714,17.132,8.083,24.198c6.74,8.857,16.882,14.505,27.825,15.493c1.073,0.119,2.132,0.15,3.213,0.174      c0.099,0.001,0.2,0.001,0.299,0.001c8.245,0.001,16.185-2.545,22.971-7.37c1.416-1.004,2.806-2.131,4.136-3.353l0.708-0.674      c7.489-7.401,11.674-17.26,11.773-27.743c0.116-10.543-3.91-20.493-11.336-28.018c-6.582-6.715-15.309-10.873-24.576-11.711      c-0.936-0.082-1.971-0.134-3.251-0.163c-0.116-0.001-0.234-0.001-0.349-0.001C412.715,300.485,402.88,304.525,395.404,311.884      L395.404,311.884z"/>
			</g>
		</g>
		<g>
			<g>
				<g>
					<g>
						<path fill="#151D79" d="M443.662,319.761h-41.048c-2.876,0-5.207,2.331-5.207,5.207v22.886c0,2.876,2.331,5.206,5.207,5.206        h22.038v12.827l12.574-12.827h6.437c2.877,0,5.208-2.33,5.208-5.206v-22.886C448.87,322.092,446.539,319.761,443.662,319.761z        "/>
					</g>
				</g>
			</g>
			<g>
				<g>
					<g>
						<path fill="#FFFFFF" d="M412.972,342.37l-5.951-5.95c-0.339-0.34-0.339-0.893,0-1.233l5.787-5.785l1.233,1.233l-5.169,5.169        l5.334,5.335L412.972,342.37z"/>
					</g>
				</g>
			</g>
			<g>
				<g>
					<g>
						<path fill="#FFFFFF" d="M433.977,342.662l-1.232-1.232l5.46-5.461l-5.461-5.462l1.234-1.232l6.078,6.078        c0.163,0.164,0.255,0.386,0.255,0.616c0,0.232-0.092,0.453-0.256,0.617L433.977,342.662z"/>
					</g>
				</g>
			</g>
			<g>
				<g>
					<g>
						
							<rect x="423.047" y="324.316" transform="matrix(0.9136 0.4066 -0.4066 0.9136 173.1714 -143.3346)" fill="#FFFFFF" width="1.744" height="23.142"/>
					</g>
				</g>
			</g>
		</g>
		<g id="XMLID_1590_">
			<g id="XMLID_1591_">
				<rect x="94.409" y="200.476" fill-rule="evenodd" clip-rule="evenodd" fill="#5CCFFF" width="109.884" height="27.61"/>
			</g>
			<g>
				<g>
					<g>
						<g>
							<path fill="#FFFFFF" d="M110.389,207.684h1.509v7.819c0,3.103-1.526,4.058-3.538,4.058c-0.555,0-1.231-0.122-1.612-0.278         l0.225-1.231c0.312,0.122,0.763,0.227,1.267,0.227c1.352,0,2.149-0.607,2.149-2.896V207.684z"/>
						</g>
					</g>
				</g>
				<g>
					<g>
						<g>
							<path fill="#FFFFFF" d="M116.302,215.693l-1.213,3.676h-1.561l3.97-11.686h1.821l3.988,11.686h-1.613l-1.249-3.676H116.302z          M120.134,214.515l-1.145-3.364c-0.26-0.763-0.433-1.455-0.606-2.133h-0.035c-0.174,0.694-0.364,1.404-0.59,2.116         l-1.144,3.381H120.134z"/>
						</g>
					</g>
				</g>
				<g>
					<g>
						<g>
							<path fill="#FFFFFF" d="M126.671,219.369l-3.814-11.686h1.629l1.821,5.756c0.502,1.578,0.936,3,1.248,4.368h0.034         c0.33-1.352,0.815-2.824,1.335-4.352l1.977-5.772h1.612l-4.178,11.686H126.671z"/>
						</g>
					</g>
				</g>
				<g>
					<g>
						<g>
							<path fill="#FFFFFF" d="M134.682,215.693l-1.214,3.676h-1.56l3.97-11.686h1.821l3.988,11.686h-1.613l-1.249-3.676H134.682z          M138.514,214.515l-1.144-3.364c-0.261-0.763-0.434-1.455-0.607-2.133h-0.035c-0.173,0.694-0.365,1.404-0.589,2.116         l-1.144,3.381H138.514z"/>
						</g>
					</g>
				</g>
				<g>
					<g>
						<g>
							<path fill="#FFFFFF" d="M143.196,217.53c0.676,0.417,1.665,0.764,2.704,0.764c1.544,0,2.445-0.815,2.445-1.993         c0-1.093-0.624-1.717-2.202-2.324c-1.906-0.677-3.086-1.664-3.086-3.312c0-1.82,1.508-3.173,3.78-3.173         c1.196,0,2.063,0.276,2.583,0.572l-0.416,1.231c-0.381-0.208-1.163-0.555-2.219-0.555c-1.596,0-2.203,0.954-2.203,1.75         c0,1.093,0.711,1.631,2.323,2.254c1.977,0.764,2.983,1.718,2.983,3.435c0,1.803-1.335,3.362-4.091,3.362         c-1.128,0-2.358-0.328-2.983-0.745L143.196,217.53z"/>
						</g>
					</g>
				</g>
				<g>
					<g>
						<g>
							<path fill="#FFFFFF" d="M160.118,218.987c-0.554,0.278-1.664,0.555-3.085,0.555c-3.294,0-5.773-2.08-5.773-5.911         c0-3.659,2.479-6.139,6.103-6.139c1.457,0,2.375,0.313,2.775,0.52l-0.365,1.231c-0.572-0.276-1.387-0.485-2.358-0.485         c-2.739,0-4.56,1.752-4.56,4.82c0,2.861,1.646,4.699,4.49,4.699c0.919,0,1.855-0.192,2.462-0.485L160.118,218.987z"/>
						</g>
					</g>
				</g>
				<g>
					<g>
						<g>
							<path fill="#FFFFFF" d="M162.008,207.84c0.763-0.156,1.855-0.243,2.896-0.243c1.611,0,2.653,0.295,3.382,0.953         c0.589,0.52,0.918,1.317,0.918,2.22c0,1.543-0.971,2.565-2.202,2.981v0.052c0.901,0.312,1.438,1.146,1.716,2.358         c0.381,1.631,0.659,2.758,0.901,3.208h-1.561c-0.189-0.33-0.451-1.335-0.78-2.792c-0.347-1.612-0.97-2.22-2.341-2.271h-1.421         v5.063h-1.509V207.84z M163.517,213.162h1.542c1.612,0,2.636-0.885,2.636-2.22c0-1.508-1.093-2.168-2.688-2.185         c-0.729,0-1.249,0.069-1.491,0.14V213.162z"/>
						</g>
					</g>
				</g>
				<g>
					<g>
						<g>
							<path fill="#FFFFFF" d="M172.844,207.684v11.686h-1.507v-11.686H172.844z"/>
						</g>
					</g>
				</g>
				<g>
					<g>
						<g>
							<path fill="#FFFFFF" d="M175.481,207.822c0.728-0.122,1.682-0.226,2.896-0.226c1.491,0,2.583,0.347,3.278,0.97         c0.641,0.556,1.022,1.405,1.022,2.446c0,1.057-0.312,1.89-0.901,2.496c-0.798,0.849-2.098,1.283-3.572,1.283         c-0.45,0-0.867-0.017-1.214-0.104v4.681h-1.508V207.822z M176.989,213.456c0.33,0.087,0.746,0.122,1.249,0.122         c1.82,0,2.93-0.885,2.93-2.497c0-1.543-1.093-2.288-2.756-2.288c-0.659,0-1.162,0.052-1.422,0.121V213.456z"/>
						</g>
					</g>
				</g>
				<g>
					<g>
						<g>
							<path fill="#FFFFFF" d="M186.925,208.967h-3.555v-1.283h8.652v1.283h-3.572v10.402h-1.525V208.967z"/>
						</g>
					</g>
				</g>
			</g>
		</g>
		<g>
			<g>
				<path fill="#A1A9D6" d="M60.26,177.239c-3.974,0-7.707-1.438-10.512-4.047c-1.82-1.69-4.248-2.622-6.838-2.622      s-5.017,0.932-6.836,2.622c-1.052,0.975-2.841,0.908-3.817-0.139c-1.012-1.092-0.95-2.803,0.138-3.816      c2.809-2.609,6.542-4.047,10.514-4.047s7.707,1.438,10.515,4.047c1.819,1.69,4.248,2.622,6.837,2.622      c2.59,0,5.019-0.932,6.839-2.622c2.808-2.609,6.541-4.046,10.511-4.046c3.973,0,7.707,1.437,10.515,4.046      c1.818,1.69,4.246,2.622,6.835,2.622c2.59,0,5.02-0.932,6.839-2.622c2.807-2.609,6.54-4.047,10.512-4.047      s7.706,1.438,10.513,4.047c1.09,1.014,1.152,2.726,0.139,3.815c-0.978,1.052-2.768,1.114-3.816,0.14      c-1.82-1.69-4.247-2.622-6.837-2.622c-2.589,0-5.017,0.931-6.834,2.622c-2.81,2.608-6.543,4.046-10.516,4.046      c-3.972,0-7.705-1.437-10.511-4.046c-1.82-1.69-4.248-2.622-6.837-2.622c-2.59,0-5.018,0.932-6.837,2.622      C67.965,175.802,64.231,177.239,60.26,177.239z M42.91,168.671c3.072,0,5.958,1.111,8.131,3.13      c2.454,2.282,5.728,3.538,9.219,3.538c3.49,0,6.765-1.257,9.222-3.538c2.171-2.019,5.06-3.13,8.13-3.13s5.958,1.111,8.131,3.13      c2.454,2.281,5.728,3.537,9.217,3.537c3.491,0,6.768-1.256,9.224-3.537c2.17-2.019,5.057-3.13,8.128-3.13      c3.072,0,5.96,1.111,8.131,3.13c0.313,0.292,0.839,0.272,1.132-0.042c0.298-0.321,0.281-0.829-0.043-1.13      c-2.454-2.281-5.728-3.538-9.219-3.538c-3.49,0-6.764,1.257-9.218,3.538c-2.173,2.019-5.063,3.13-8.133,3.13      s-5.958-1.111-8.129-3.13c-2.457-2.281-5.73-3.537-9.222-3.537c-3.489,0-6.763,1.256-9.218,3.537      c-2.173,2.019-5.061,3.13-8.132,3.13c-3.071,0-5.958-1.111-8.13-3.13c-2.456-2.281-5.73-3.538-9.222-3.538      c-3.49,0-6.764,1.257-9.22,3.538c-0.322,0.3-0.341,0.809-0.04,1.131c0.288,0.31,0.817,0.331,1.132,0.04      C36.952,169.782,39.839,168.671,42.91,168.671z"/>
			</g>
		</g>
		<g>
			<g>
				<path fill="#A1A9D6" d="M416.499,194.629c-3.973,0-7.707-1.438-10.511-4.047c-1.82-1.69-4.249-2.622-6.839-2.622      c-2.589,0-5.017,0.932-6.835,2.622c-1.053,0.975-2.842,0.908-3.817-0.139c-1.013-1.092-0.95-2.804,0.138-3.816      c2.809-2.609,6.542-4.047,10.514-4.047c3.971,0,7.706,1.438,10.514,4.047c1.819,1.69,4.247,2.622,6.836,2.622      c2.59,0,5.019-0.932,6.839-2.622c2.807-2.609,6.541-4.046,10.512-4.046c3.972,0,7.707,1.437,10.514,4.046      c1.818,1.69,4.247,2.622,6.835,2.622c2.59,0,5.02-0.932,6.84-2.622c2.807-2.609,6.54-4.047,10.512-4.047      c3.972,0,7.705,1.438,10.512,4.047c1.091,1.014,1.153,2.726,0.14,3.815c-0.978,1.052-2.769,1.114-3.817,0.14      c-1.819-1.69-4.247-2.622-6.837-2.622c-2.589,0-5.016,0.931-6.833,2.622c-2.81,2.608-6.544,4.046-10.517,4.046      c-3.971,0-7.704-1.437-10.511-4.046c-1.819-1.69-4.248-2.622-6.837-2.622c-2.59,0-5.018,0.932-6.837,2.622      C424.205,193.191,420.47,194.629,416.499,194.629z M399.148,186.06c3.072,0,5.96,1.112,8.132,3.131      c2.453,2.282,5.727,3.538,9.218,3.538c3.49,0,6.765-1.257,9.222-3.538c2.173-2.019,5.06-3.131,8.13-3.131      s5.958,1.112,8.131,3.131c2.454,2.281,5.728,3.537,9.218,3.537c3.491,0,6.767-1.256,9.224-3.537      c2.169-2.019,5.056-3.131,8.127-3.131c3.072,0,5.96,1.112,8.131,3.131c0.313,0.292,0.839,0.272,1.132-0.042      c0.299-0.322,0.282-0.829-0.043-1.13c-2.453-2.281-5.728-3.538-9.218-3.538s-6.764,1.257-9.218,3.538      c-2.175,2.019-5.063,3.13-8.135,3.13c-3.071,0-5.957-1.111-8.128-3.13c-2.456-2.281-5.73-3.537-9.221-3.537      c-3.49,0-6.764,1.256-9.219,3.537c-2.173,2.019-5.061,3.13-8.132,3.13c-3.071,0-5.958-1.111-8.129-3.13      c-2.457-2.281-5.731-3.538-9.222-3.538c-3.491,0-6.765,1.257-9.22,3.538c-0.323,0.3-0.341,0.808-0.041,1.131      c0.288,0.31,0.817,0.331,1.132,0.04C393.19,187.172,396.078,186.06,399.148,186.06z"/>
			</g>
		</g>
		<g>
			<g>
				<rect x="143.008" y="146.035" fill="#A1A9D6" width="38" height="1.899"/>
			</g>
			<g>
				<rect x="448.014" y="227.658" fill="#A1A9D6" width="21.245" height="1.899"/>
			</g>
			<g>
				<rect x="75.392" y="194.32" fill="#A1A9D6" width="21.245" height="1.9"/>
			</g>
			<g>
				<rect x="412.481" y="173.094" fill="#A1A9D6" width="9.633" height="1.9"/>
			</g>
			<g>
				<path fill="#A1A9D6" d="M490.754,311.48c-1.797,0-3.259-1.462-3.259-3.259c0-1.798,1.462-3.26,3.259-3.26      s3.259,1.462,3.259,3.26C494.013,310.019,492.551,311.48,490.754,311.48z M490.754,306.862c-0.75,0-1.359,0.609-1.359,1.359      c0,0.748,0.61,1.358,1.359,1.358c0.749,0,1.359-0.61,1.359-1.358C492.113,307.472,491.502,306.862,490.754,306.862z"/>
			</g>
			<g>
				<path fill="#A1A9D6" d="M377.568,174.101c-1.797,0-3.259-1.461-3.259-3.259c0-1.797,1.462-3.259,3.259-3.259      s3.259,1.462,3.259,3.259C380.828,172.64,379.365,174.101,377.568,174.101z M377.568,169.483c-0.75,0-1.359,0.608-1.359,1.358      c0,0.749,0.609,1.358,1.359,1.358s1.359-0.609,1.359-1.358C378.928,170.092,378.318,169.483,377.568,169.483z"/>
			</g>
			<g>
				<path fill="#A1A9D6" d="M78.732,155.402c-1.797,0-3.259-1.462-3.259-3.259c0-1.798,1.462-3.26,3.259-3.26      c1.797,0,3.259,1.462,3.259,3.26C81.991,153.94,80.529,155.402,78.732,155.402z M78.732,150.784      c-0.749,0-1.359,0.61-1.359,1.359s0.61,1.358,1.359,1.358c0.75,0,1.359-0.609,1.359-1.358S79.482,150.784,78.732,150.784z"/>
			</g>
			<g>
				<path fill="#A1A9D6" d="M54.803,209.144c-1.797,0-3.258-1.462-3.258-3.258c0-1.798,1.461-3.26,3.258-3.26      c1.797,0,3.259,1.462,3.259,3.26C58.062,207.682,56.6,209.144,54.803,209.144z M54.803,204.525c-0.75,0-1.358,0.61-1.358,1.36      c0,0.749,0.609,1.358,1.358,1.358s1.359-0.609,1.359-1.358C56.162,205.136,55.553,204.525,54.803,204.525z"/>
			</g>
			<g>
				<g>
					
						<rect x="113.527" y="147.063" transform="matrix(0.707 0.7072 -0.7072 0.707 139.4596 -37.0792)" fill="#A1A9D6" width="1.9" height="5.394"/>
				</g>
				<g>
					
						<rect x="111.779" y="148.81" transform="matrix(0.707 0.7072 -0.7072 0.707 139.4495 -37.0805)" fill="#A1A9D6" width="5.395" height="1.899"/>
				</g>
			</g>
			<g>
				<rect x="475.97" y="278.938" fill="#A1A9D6" width="21.245" height="1.899"/>
			</g>
			<g>
				<g>
					
						<rect x="450.774" y="213.452" transform="matrix(0.7067 0.7075 -0.7075 0.7067 285.4051 -256.1992)" fill="#A1A9D6" width="1.901" height="5.394"/>
				</g>
				<g>
					
						<rect x="449.026" y="215.2" transform="matrix(0.707 0.7072 -0.7072 0.707 285.2383 -256.1404)" fill="#A1A9D6" width="5.396" height="1.899"/>
				</g>
			</g>
			<g>
				<rect x="453.485" y="288.313" fill="#A1A9D6" width="38" height="1.899"/>
			</g>
			<g>
				<rect x="377.568" y="211.67" fill="#A1A9D6" width="38" height="1.9"/>
			</g>
			<g>
				<rect x="313.521" y="149.76" fill="#A1A9D6" width="27.599" height="1.899"/>
			</g>
			<g>
				<rect x="303.12" y="149.76" fill="#A1A9D6" width="7.526" height="1.899"/>
			</g>
			<g>
				<rect x="149.983" y="123.896" fill="#A1A9D6" width="21.245" height="1.899"/>
			</g>
			<g>
				<rect x="348.766" y="129.17" fill="#A1A9D6" width="9.632" height="1.899"/>
			</g>
			<g>
				<path fill="#A1A9D6" d="M472.172,209.144c-1.797,0-3.259-1.462-3.259-3.259s1.462-3.258,3.259-3.258      c1.797,0,3.259,1.461,3.259,3.258S473.969,209.144,472.172,209.144z M472.172,204.526c-0.75,0-1.359,0.609-1.359,1.358      c0,0.75,0.61,1.359,1.359,1.359s1.359-0.609,1.359-1.359C473.531,205.136,472.922,204.526,472.172,204.526z"/>
			</g>
			<g>
				<path fill="#A1A9D6" d="M151.258,167.091c-1.797,0-3.258-1.462-3.258-3.26c0-1.797,1.461-3.258,3.258-3.258      s3.259,1.461,3.259,3.258C154.517,165.629,153.055,167.091,151.258,167.091z M151.258,162.474c-0.749,0-1.358,0.608-1.358,1.357      c0,0.75,0.61,1.359,1.358,1.359c0.75,0,1.359-0.609,1.359-1.359C152.617,163.082,152.007,162.474,151.258,162.474z"/>
			</g>
			<g>
				<g>
					
						<rect x="64.627" y="222.809" transform="matrix(0.7074 0.7068 -0.7068 0.7074 178.5896 19.6385)" fill="#A1A9D6" width="1.9" height="5.395"/>
				</g>
				<g>
					<g>
						
							<rect x="64.627" y="222.809" transform="matrix(0.7074 0.7068 -0.7068 0.7074 178.5896 19.6385)" fill="#A1A9D6" width="1.9" height="5.395"/>
					</g>
					<g>
						
							<rect x="62.879" y="224.557" transform="matrix(0.7071 0.7072 -0.7072 0.7071 178.6776 19.6868)" fill="#A1A9D6" width="5.395" height="1.9"/>
					</g>
				</g>
			</g>
			<g>
				<g>
					
						<rect x="118.286" y="121.659" transform="matrix(0.707 0.7072 -0.7072 0.707 122.8884 -47.8887)" fill="#A1A9D6" width="1.9" height="5.395"/>
				</g>
				<g>
					<g>
						
							<rect x="118.286" y="121.659" transform="matrix(0.707 0.7072 -0.7072 0.707 122.8884 -47.8887)" fill="#A1A9D6" width="1.9" height="5.395"/>
					</g>
					<g>
						
							<rect x="116.539" y="123.407" transform="matrix(0.707 0.7072 -0.7072 0.707 122.8791 -47.8889)" fill="#A1A9D6" width="5.395" height="1.9"/>
					</g>
				</g>
			</g>
			<g>
				<rect x="211.558" y="146.035" fill="#A1A9D6" width="27.6" height="1.899"/>
			</g>
			<g>
				<rect x="201.158" y="146.035" fill="#A1A9D6" width="7.525" height="1.899"/>
			</g>
			<g>
				<rect x="57.678" y="241.891" fill="#A1A9D6" width="27.6" height="1.9"/>
			</g>
			<g>
				<rect x="47.278" y="241.891" fill="#A1A9D6" width="7.525" height="1.9"/>
			</g>
			<g>
				<rect x="128.597" y="181.49" fill="#A1A9D6" width="21.245" height="1.899"/>
			</g>
			<g>
				<rect x="72.215" y="136.89" fill="#A1A9D6" width="27.599" height="1.899"/>
			</g>
			<g>
				<rect x="61.814" y="136.89" fill="#A1A9D6" width="7.526" height="1.899"/>
			</g>
			<g>
				<g>
					
						<rect x="198.568" y="125.774" transform="matrix(0.7072 0.707 -0.707 0.7072 149.2387 -103.4425)" fill="#A1A9D6" width="1.899" height="5.396"/>
				</g>
				<g>
					<g>
						
							<rect x="198.568" y="125.774" transform="matrix(0.7072 0.707 -0.707 0.7072 149.2387 -103.4425)" fill="#A1A9D6" width="1.899" height="5.396"/>
					</g>
					<g>
						
							<rect x="196.82" y="127.522" transform="matrix(0.7071 0.7072 -0.7072 0.7071 149.2957 -103.4548)" fill="#A1A9D6" width="5.395" height="1.9"/>
					</g>
				</g>
			</g>
			<g>
				<g>
					
						<rect x="270.047" y="146.865" transform="matrix(0.7076 0.7066 -0.7066 0.7076 184.9142 -147.755)" fill="#A1A9D6" width="1.899" height="5.396"/>
				</g>
				<g>
					<g>
						
							<rect x="270.047" y="146.865" transform="matrix(0.7076 0.7066 -0.7066 0.7076 184.9142 -147.755)" fill="#A1A9D6" width="1.899" height="5.396"/>
					</g>
					<g>
						
							<rect x="268.299" y="148.614" transform="matrix(0.7071 0.7072 -0.7072 0.7071 185.1495 -147.8231)" fill="#A1A9D6" width="5.395" height="1.9"/>
					</g>
				</g>
			</g>
			<g>
				<rect x="241.315" y="135.939" fill="#A1A9D6" width="27.599" height="1.899"/>
			</g>
			<g>
				<rect x="230.914" y="135.939" fill="#A1A9D6" width="7.526" height="1.899"/>
			</g>
			<g>
				<g>
					
						<rect x="361.923" y="143.332" transform="matrix(0.707 0.7072 -0.7072 0.707 209.6071 -213.8467)" fill="#A1A9D6" width="1.9" height="5.395"/>
				</g>
				<g>
					<g>
						
							<rect x="361.923" y="143.332" transform="matrix(0.707 0.7072 -0.7072 0.707 209.6071 -213.8467)" fill="#A1A9D6" width="1.9" height="5.395"/>
					</g>
					<g>
						
							<rect x="360.175" y="145.08" transform="matrix(0.7071 0.7072 -0.7072 0.7071 209.5647 -213.8287)" fill="#A1A9D6" width="5.395" height="1.9"/>
					</g>
				</g>
			</g>
			<g>
				<g>
					
						<rect x="490.535" y="257.838" transform="matrix(0.707 0.7072 -0.7072 0.707 328.2754 -271.253)" fill="#A1A9D6" width="1.9" height="5.395"/>
				</g>
				<g>
					
						<rect x="488.787" y="259.586" transform="matrix(0.7071 0.7072 -0.7072 0.7071 328.2128 -271.2338)" fill="#A1A9D6" width="5.395" height="1.899"/>
				</g>
			</g>
		</g>
		<g>
			<path fill="#F79D56" d="M193.293,417.42c3.372-0.173,5.067-3.917,5.483-3.948c0.104-0.007,0.229-0.102,0.389,0.261     c0.454,1.031-0.63,3.11-1.105,3.556c1.306,0.62,1.698,0.837,3.224,1.375c2.317,0.816,4.04,1.474,2.813,4.581     c-0.686,1.735-2.98,2.367-3.122,2.529c-0.127,0.146-0.688,0.13-0.881,0.136c-0.698,0.021-1.461-0.024-2.983-1.371     c-0.522-0.462-3.354-2.039-4.821-2.612L193.293,417.42z"/>
			<g>
				<g>
					<path fill="#EE6D32" d="M160.055,400.658c1.406,4.681,4.132,7.927,9.313,16.217c1.874,3,14.893,3.414,23.96,5.42l0.88-4.936       l-18.891-4.688c0,0-7.875-16.406-12.666-17.627C160.515,394.5,158.431,395.256,160.055,400.658z"/>
				</g>
			</g>
			<path fill="#F79D56" d="M136.817,481.891c0.042-0.032,0.109-0.052,0.165-0.076c1.964-3.092,0.79-12.222,4.335-17.72     c4.111-6.376,3.605-14.221,3.605-20.327l13.521-5.008c0,6.95-7.427,21.062-10.523,28.707c-3.983,9.835-6.927,13.323-6.057,18.147     c1.196,2.412,2.966,5.422,5.177,6.682c0.366,0.208-0.387,1.507-2.737,0.936c-4.307-1.049-3-5.236-6.756-7.236     C134.867,484.566,135.648,482.755,136.817,481.891z"/>
			<path fill="#F79D56" d="M172.687,427.256c4.56,2.314,14.648,12.334,14.875,13.138c0.227,0.807,0.112,1.67-0.317,2.389     c0,0-16.013,19.399-16.866,23.01c0.847,2.718,1.594,6.791,2.948,8.273c0.284,0.311-0.83,1.315-2.893,0.049     c-3.776-2.319-1.66-4.552-4.048-8.075c-2.779-4.1-0.284-4.097,1.233-4.453c3.266-3.237,4.608-14.896,9.517-19.474     c0,0-11.756-4.161-15.145-7.794C159.524,431.672,169.641,425.711,172.687,427.256z"/>
			<g>
				<g>
					<path fill="#151D79" d="M144.833,361.851c5.444-1.169,8.325,1.786,8.325,1.786c16.584-2.549,19.7,21.138,12.145,27.042       c-6.12,4.784-11.23,1.485-11.23,1.485s-3.453,2.577-8.742,3.39c-3.273,0.503-7.227-1.646-7.227-1.646s-4.627,3.307-8.174-1.586       s1.699-10.081,4.486-10.131c0,0-3.338-4.02,1.238-6.688C137.458,374.451,134.434,364.082,144.833,361.851z"/>
				</g>
			</g>
			<path fill="#F79D56" d="M144.998,372.688c0.861-2.392,2.605-4.472,5.056-5.703c1.62-0.816,3.353-1.163,5.045-1.092     c3.611,0.15,7.034,2.203,8.773,5.659l1.819,3.615c1.673,3.326,0.521,7.076-0.638,10.347c-1.069,3.014-3.627,4.087-6.254,4.237     l0.034,1.696l0.041,2.053c1.702,0.299,3.242,1.08,4.309,2.318c1.335,1.547,0.433,3.241-0.685,3.807     c-3.022,1.158-9.304-1.293-10.228-4.154c0.257-0.302,0.546-0.572,0.856-0.818c-0.008-0.048-0.014-0.096,0.008-0.146     c0.561-1.29,0.383-4.18,0.259-5.552c-0.425-0.148-0.81-0.304-1.123-0.458c-1.936-0.955-3.922-2.002-4.967-4.079l-1.818-3.615     C144.164,378.176,144.073,375.253,144.998,372.688z"/>
			<g>
				<path fill="#151D79" d="M149.757,378.331c7.385,1.201,8.197-6.76,7.776-10.034c-0.88-6.851-9.828-5.531-12.957-2.123      c-1.94,2.111-5.386,7.832-3.9,14.938c1.486,7.106,8.738,11.522,8.738,11.522c7.97-5.843-0.265-11.44-0.265-11.44      L149.757,378.331z"/>
			</g>
			<g>
				<path fill="#FFFEFF" d="M158.314,384.209c0.861,1.13,2.427,1.525,3.743,0.864c1.314-0.662,1.93-2.155,1.536-3.52      L158.314,384.209z"/>
			</g>
			<g>
				<path fill="#EE6D32" d="M148.553,420.732c3.713-5.173,2.373-12.13,2.279-21.62c-0.013-1.394,0.603-2.653,1.434-3.646      c2.359-0.255,6.528,1.662,8.98,1.769c1.126,0.054,1.877-0.268,1.931-1.354c0.013-0.013,0.013-0.041,0.013-0.066      c0.087,0.087,0.169,0.198,0.252,0.304c0.005,0.008,0.011,0.012,0.016,0.017c0.04,0.055,0.081,0.095,0.121,0.148      c1.448,1.729,4.705,3.444,5.442,5.201c0.777,1.835-0.885,3.659-2.975,4.249c-0.631,5.294-3.016,11.567,1.42,14.744      c4.168,2.962,7.774,7.559,7.774,7.559c-12.466,14.075-31.191,17.922-31.191,17.922      C145.404,440.973,141.718,430.249,148.553,420.732z"/>
			</g>
			<g>
				<path fill="#151D79" d="M136.424,481.2c1.447,1.091,4.298,8.393,5.628,10.463c1.09,1.768,4.285,0.993,4.008-0.594      c1.41,1.872,4.229,2.527,3.971,4.325c-0.198,1.361-4.188,1.307-5.396,1.217c-2.63-0.146-3.346-2.315-3.912-4.822      c-0.646-2.863-2.302-4.495-3.238-5.354c0.129,1.716-0.061,5.946,0.041,7.288h-0.458c-0.154-2.595-0.474-5.027-1.329-7.616      C135.129,484.256,135.347,482.642,136.424,481.2z"/>
			</g>
			<g>
				<path fill="#151D79" d="M165.707,461.378c1.235,1.384,2.52,8.988,3.417,11.27c0.721,1.938,4.162,1.976,4.232,0.405      c1.024,2.113,3.762,3.415,3.094,5.055c-0.506,1.243-4.574,0.226-5.791-0.148c-2.657-0.774-2.904-3.002-2.922-5.513      c-0.021-2.869-1.35-4.814-2.114-5.854c-0.251,1.657-1.393,5.618-1.587,6.914l-0.468-0.111c0.422-2.494,0.638-4.876,0.342-7.535      C163.698,463.96,164.281,462.484,165.707,461.378z"/>
			</g>
			<path fill="#F79D56" d="M184.607,418.737c3.024-0.25,4.444-3.662,4.817-3.702c0.093-0.011,0.203-0.099,0.357,0.224     c0.436,0.913-0.48,2.813-0.894,3.227c1.191,0.52,3.16,0.388,4.582,1.678c0.764,0.691,0.035,1.744-0.106,1.924     c-1.035,1.323-2.84,3.531-3.063,3.804c-0.11,0.136-0.297,0.176-0.472,0.188c-0.626,0.038-1.313,0.02-2.718-1.148     c-0.482-0.401-1.944-1.642-3.278-2.115L184.607,418.737z"/>
			<g>
				<g>
					<g>
						<path fill="#261AAB" d="M163.67,418.3c0,0.59,0.519,1.07,1.153,1.07h23.702c0.634,0,1.152-0.48,1.152-1.07        c0-0.588-0.519-1.068-1.152-1.068h-23.702C164.188,417.231,163.67,417.712,163.67,418.3z"/>
					</g>
				</g>
				<g>
					<g>
						<path fill="#151D79" d="M213.976,396.114v19.54c0,0.87-0.706,1.576-1.576,1.576h-29.564c-0.871,0-1.576-0.706-1.576-1.576        v-19.54c0-0.87,0.705-1.576,1.576-1.576h29.564C213.27,394.538,213.976,395.244,213.976,396.114z"/>
					</g>
				</g>
				<g>
					<path fill="#4134EC" d="M183.027,418.3c0-0.59,0.479-1.068,1.069-1.068h28.72c0.813,0,1.159,0.48,1.159,1.068       c0,0.59-0.346,1.07-1.159,1.07h-28.72C183.507,419.37,183.027,418.892,183.027,418.3L183.027,418.3z"/>
				</g>
			</g>
			<path fill="#EE6D32" d="M167.957,413.172c0,0-7.088-8.408-9.598-13.768l-6.675,2.104c0.078,5.527,6.387,8.747,10.419,15.58     c1.738,2.945,14.309,3.665,23.021,5.824l0.973-4.748L167.957,413.172z"/>
		</g>
	</g>
</g>
</svg>