<svg xmlns="http://www.w3.org/2000/svg" xmlns:xlink="http://www.w3.org/1999/xlink" version="1.1" id="layer_1" x="0px" y="0px" width="600px" height="600px" viewBox="0 0 600 600" enable-background="new 0 0 600 600" xml:space="preserve">
<g>
	<defs>
		<rect id="SVGID_1_" width="600" height="600"/>
	</defs>
	<clipPath id="SVGID_2_">
		<use xlink:href="#SVGID_1_" overflow="visible"/>
	</clipPath>
	<rect clip-path="url(#SVGID_2_)" fill="#FFFFFF00" width="600" height="600"/>
	<linearGradient id="SVGID_3_" gradientUnits="userSpaceOnUse" x1="-36.061" y1="551.1689" x2="518.9112" y2="89.192">
		<stop offset="0" style="stop-color:#5671EC"/>
		<stop offset="1" style="stop-color:#5755E9"/>
	</linearGradient>

	<g clip-path="url(#SVGID_2_)">
		<g id="XMLID_144_">
			<g id="XMLID_177_">
				<g>
					<g>
						<g>
							<path fill-rule="evenodd" clip-rule="evenodd" fill="#EE6D32" d="M85.838,120.113c7.251,0,13.129,5.071,13.129,11.327         c0,3.757-2.119,7.085-5.381,9.146l1.849,4.677l-4.532-3.369c-1.558,0.563-3.271,0.875-5.065,0.875         c-7.251,0-13.129-5.071-13.129-11.328C72.708,125.185,78.587,120.113,85.838,120.113z"/>
						</g>
					</g>
				</g>
			</g>
			<g id="XMLID_145_">
				<g id="XMLID_176_">
					<g>
						<g>
							<path fill-rule="evenodd" clip-rule="evenodd" fill="#FFFFFF" d="M91.58,133.443c-0.98,0-1.779-0.8-1.779-1.781         c0-0.979,0.799-1.778,1.779-1.778s1.781,0.8,1.781,1.778C93.36,132.644,92.56,133.443,91.58,133.443z"/>
						</g>
					</g>
				</g>
				<g id="XMLID_173_">
					<g>
						<g>
							<path fill-rule="evenodd" clip-rule="evenodd" fill="#FFFFFF" d="M85.838,133.443c-0.98,0-1.779-0.8-1.779-1.781         c0-0.979,0.799-1.778,1.779-1.778s1.779,0.8,1.779,1.778C87.617,132.644,86.818,133.443,85.838,133.443z"/>
						</g>
					</g>
				</g>
				<g id="XMLID_172_">
					<g>
						<g>
							<path fill-rule="evenodd" clip-rule="evenodd" fill="#FFFFFF" d="M80.096,133.443c-0.98,0-1.78-0.8-1.78-1.781         c0-0.979,0.8-1.778,1.78-1.778s1.779,0.8,1.779,1.778C81.875,132.644,81.076,133.443,80.096,133.443z"/>
						</g>
					</g>
				</g>
			</g>
		</g>
		<g>
			<g>
				<g>
					<g>
						<path fill="#5CCFFF" d="M373.769,355.716c1.429-42.174,36.733-75.223,78.918-73.945c0.093,0.003,0.185,0.003,0.278,0.006        c42.307,1.434,75.441,36.859,74.012,79.129c-1.432,42.269-36.889,75.372-79.195,73.939c-0.094-0.004-0.186-0.01-0.277-0.013        C405.331,433.253,372.342,397.892,373.769,355.716z"/>
					</g>
				</g>
			</g>
			<g>
				<path fill="#261AAB" d="M463.975,428.124c-0.498-0.622-0.91-1.282-1.256-1.962c0.316-3.337,1.785-6.609,3.312-9.742      c0.509-1.044,1.024-2.072,1.507-3.083c3.873-6.444,3.813-10.481,1.563-13.354c-0.563-0.719-1.263-1.363-2.071-1.955      c-1.019-0.379-2.074-0.754-3.149-1.137c-1.074-0.382-2.167-0.772-3.263-1.181c-1.339-0.184-2.563-0.451-3.684-0.793      c-17.417-4.137-3.556-17.997-0.552-28.99c0.414-0.868,0.783-1.638,1.22-2.318c1.31-2.039,3.239-3.265,8.907-3.861      c0.766-0.08,1.603-0.1,2.48-0.121c1.439-0.006,2.737-0.203,3.916-0.541c1.182-0.339,2.244-0.817,3.221-1.387      c0.621-1.495,1.382-2.696,2.246-3.664c0.756-0.847,1.59-1.516,2.48-2.049c0.89-0.532,1.836-0.929,2.813-1.23      c4.365-5.022,11.295,1.907,15.813-4.349c0.078-0.641,0.014-1.54-0.641-2.423c-0.654-0.882-1.896-1.746-4.176-2.315      c-2.754-0.687-4.961-1.116-6.736-1.461c-4.635-0.904-6.965-4.824-11.635-8.319c-3.102-2.321-5.244-4.568-6.68-6.313      c-0.92-1.949-1.216-3.813-6.09-6.163c-6.604-3.186-12.471,4.398-15.578,0.043c-0.922-1.293,0.42-3.365,0.976-4.521      c1.116-2.321,1.409-4.801,2.954-6.922c0.504-0.691,1.066-1.032,1.656-1.246c0,0,2.393-0.457,3.287-1.093      c1.863-1.327,4.518-2.015,6.834-1.794c0.189,0.018,0.36,0.062,0.537,0.096l0.01-0.002l0.005,0.005      c3.883,0.75,4.058,7.066,8.808,7.066c5.667,0,4.963-5.456,2.947-6.187c-2.035-1.216-3.985-0.375-6.135-0.375      c-2.438,0-7.521-2.236-8.313-2.136c-1.273,0.162-2.986,0.905-4.238,1.144l-3.688,0.383c-1.561-0.05-5.568-5.605-1.188-8.314      c1.331-0.825,7.52-2.086,7.52-2.086c1.719-0.088,3.498-4.399,5.42-4.074c1.41,0.238,3.723,3.683,11.123,4.063      c1.646,0.086,13.365-2.774,13.125,1.914c-0.051,0.993,1.229,1.856,2.133,1.732c1.63-0.159,3.143-0.039,4.726,0.08      c-12.146-9.165-27.082-14.858-43.407-15.411c-0.058-0.003-0.113-0.003-0.172-0.005c-18.906-0.599-36.439,5.773-50.174,16.761      c1.395,1.091,2.93,2.02,4.646,2.449c0.572,0.142,1.081,0.751,1.035,1.358c-0.218,2.82-5.344,3.263-3.654,9.105      c0.709,2.451,4.523,3.037,6.992,3.767c1.152,0.339,2.498,0.807,2.859,2.119c0.68,2.474,2.783,3.922,3.436,4.146      c0.469,0.161,0.879,0.38,1.254,0.627l1.185,1.114c0.694,0.953,0.987,2.164,0.759,3.544c-0.547,3.306-3.96,3.496-6.544,2.575      c0,0-1.112-0.47-1.331-0.599c-0.187-0.109-0.342-0.237-0.495-0.362c-0.376-0.222-0.71-0.526-1.002-0.904l-0.518-0.378      l-3.581-4.996c0,0-3.767-2.286-5.27,0.215c-0.422,0.702-1.035,1.356-1.688,1.759c-0.657,0.43-6.396,2.183-5.092,0.635      c0.728-0.864,1.608-2.21-0.399-3.459c-1.901-1.185-3.701,1.2-4.621,3.836c-0.689,1.976-2.928-2.263-5.355-0.687      c-0.301,0.196-1.03,2.932-1.171,3.154c-1.175,1.87-2.195,1.696-4.261,1.115c-0.613,1.473-1.172,2.974-1.7,4.49      c0.413,0.027,0.843,0.099,1.306,0.275c4.775,1.827,7.839-2.78,12.3-1.108c5.037,1.89,5.438-3.248,9.718-3.852      c5.183-0.732,5.016,2.99,15.14,4.08c4.813,0.516,7.249,3.872,11.539,5.148c2.458,0.73,3.307,2.877,3.005,4.851      c1.004,8.582,0.91,23.021-11.137,22.405c-3.873-0.198-14.782-3.04-16.822,0.871c-3.146,6.031-4.211,12.158-4.962,18.888      c-0.366,3.278-4.022,12.204-4.022,12.204c-1.033,2.792-1.533,10.37-2.025,11.041c13.449,15.762,33.188,26.07,55.469,26.876      c0.059,0.002,0.115,0.006,0.172,0.008c8.111,0.275,15.965-0.753,23.387-2.853C467.717,431.472,465.463,429.98,463.975,428.124z"/>
			</g>
			<g>
				<path fill="#261AAB" d="M521.879,330.743l-0.163,0.105c0,0-1.21,0.184-1.354,0.896l-0.067,0.332      c-0.304,1.226-1.379,4.024-4.865,4.064c-2.5,0.029-3.35,2.711-4.172,5.304c-0.677,2.132-1.443,4.548-3.009,5.824      c-0.895,0.727-1.647,1.413-2.343,2.054c-0.748,1.028-1.283,2.125-1.656,3.276c-0.373,1.15-0.584,2.354-0.686,3.594      c0.504,0.998,0.934,1.986,1.296,2.963c0.743,1.43,1.307,2.821,1.718,4.175c0.41,1.355,0.666,2.674,0.795,3.964      c0.145,1.309,0.24,2.591,0.281,3.846s0.026,2.483-0.049,3.684c-0.574,3.188-1.68,6.465-3.231,9.575      c-0.507,1.014,6.458,19.365,6.2,21.147c9.734-12.359,15.83-27.751,16.402-44.644      C527.336,350.278,525.499,340.081,521.879,330.743z"/>
			</g>
		</g>
		<g>
			<path fill-rule="evenodd" clip-rule="evenodd" fill="#F5C826" d="M500.366,281.735c-7.887,0-16.47,6.103-16.47,16.284     c0,15.496,16.508,31.87,16.508,31.87s16.507-16.642,16.507-31.87C516.911,287.838,507.799,281.735,500.366,281.735z      M500.403,309.148c-6.105,0-11.056-4.95-11.056-11.057s4.95-11.057,11.056-11.057c6.106,0,11.057,4.95,11.057,11.057     S506.509,309.148,500.403,309.148z"/>
		</g>
		<g>
			<g>
				<rect x="83.377" y="454.284" fill="#909ACF" width="79.378" height="1.8"/>
			</g>
			<g>
				<rect x="95.077" y="444.341" fill="#909ACF" width="175.814" height="1.8"/>
			</g>
			<g>
				<rect x="192.21" y="454.284" fill="#909ACF" width="26.934" height="1.8"/>
			</g>
			<g>
				<rect x="53.021" y="454.284" fill="#909ACF" width="15.959" height="1.8"/>
			</g>
			<g>
				<rect x="253.56" y="499.763" fill="#909ACF" width="46.591" height="1.8"/>
			</g>
			<g>
				<rect x="270.149" y="479.337" fill="#909ACF" width="15.809" height="1.8"/>
			</g>
			<g>
				<rect x="225.633" y="464.935" fill="#909ACF" width="9.369" height="1.8"/>
			</g>
			<g>
				<g>
					<rect x="497.652" y="476.399" fill="#909ACF" width="27.138" height="1.8"/>
				</g>
				<g>
					<rect x="534.858" y="476.399" fill="#909ACF" width="9.209" height="1.8"/>
				</g>
				<g>
					<rect x="487.273" y="476.399" fill="#909ACF" width="5.456" height="1.8"/>
				</g>
			</g>
			<g>
				<g>
					<rect x="369.917" y="466.238" fill="#909ACF" width="21.275" height="1.8"/>
				</g>
				<g>
					<rect x="401.262" y="466.238" fill="#909ACF" width="9.209" height="1.8"/>
				</g>
			</g>
			<g>
				<g>
					<rect x="463.031" y="463.499" fill="#909ACF" width="46.667" height="1.8"/>
				</g>
			</g>
		</g>
		<g>
			<g>
				<rect x="477.025" y="187.708" fill="#C6CAE0" width="36" height="1.8"/>
			</g>
			<g>
				<rect x="492.524" y="204.06" fill="#C6CAE0" width="20.127" height="1.8"/>
			</g>
			<g>
				<rect x="388.137" y="168.416" fill="#C6CAE0" width="20.127" height="1.8"/>
			</g>
			<g>
				<rect x="272.823" y="167.659" fill="#C6CAE0" width="9.126" height="1.8"/>
			</g>
			<g>
				<path fill="#C6CAE0" d="M271.479,150.898c-1.703,0-3.088-1.385-3.088-3.087s1.385-3.088,3.088-3.088      c1.701,0,3.086,1.386,3.086,3.088S273.18,150.898,271.479,150.898z M271.479,146.524c-0.711,0-1.288,0.577-1.288,1.287      c0,0.709,0.577,1.287,1.288,1.287c0.709,0,1.286-0.578,1.286-1.287C272.765,147.102,272.188,146.524,271.479,146.524z"/>
			</g>
			<g>
				<g>

						<rect x="473.126" y="202.404" transform="matrix(0.7074 0.7068 -0.7068 0.7074 283.5836 -275.0829)" fill="#C6CAE0" width="1.8" height="5.111"/>
				</g>
				<g>

						<rect x="471.471" y="204.06" transform="matrix(0.7071 0.7071 -0.7071 0.7071 283.7677 -275.1559)" fill="#C6CAE0" width="5.111" height="1.8"/>
				</g>
			</g>
			<g>
				<rect x="434.368" y="155.308" fill="#C6CAE0" width="20.127" height="1.8"/>
			</g>
			<g>
				<g>

						<rect x="414.971" y="153.653" transform="matrix(0.7068 0.7074 -0.7074 0.7068 232.4167 -248.3831)" fill="#C6CAE0" width="1.799" height="5.111"/>
				</g>
				<g>

						<rect x="413.315" y="155.309" transform="matrix(0.707 0.7072 -0.7072 0.707 232.3161 -248.3375)" fill="#C6CAE0" width="5.111" height="1.799"/>
				</g>
			</g>
			<g>
				<rect x="482.293" y="265.487" fill="#C6CAE0" width="36" height="1.8"/>
			</g>
			<g>
				<rect x="100.605" y="186.823" fill="#C6CAE0" width="36" height="1.801"/>
			</g>
			<g>
				<rect x="203.442" y="166.759" fill="#C6CAE0" width="26.146" height="1.8"/>
			</g>
			<g>
				<rect x="193.589" y="166.759" fill="#C6CAE0" width="7.129" height="1.8"/>
			</g>
			<g>
				<rect x="81.907" y="160.795" fill="#C6CAE0" width="20.127" height="1.8"/>
			</g>
			<g>
				<rect x="181.382" y="147.811" fill="#C6CAE0" width="9.125" height="1.8"/>
			</g>
			<g>
				<path fill="#C6CAE0" d="M76.838,187.483c-1.704,0-3.089-1.385-3.089-3.087c0-1.703,1.385-3.087,3.089-3.087      c1.701,0,3.086,1.384,3.086,3.087C79.924,186.099,78.539,187.483,76.838,187.483z M76.838,183.109      c-0.711,0-1.289,0.577-1.289,1.287s0.577,1.287,1.289,1.287c0.709,0,1.287-0.577,1.287-1.287S77.547,183.109,76.838,183.109z"/>
			</g>
			<g>
				<path fill="#C6CAE0" d="M172.371,171.646c-1.702,0-3.086-1.385-3.086-3.087c0-1.703,1.384-3.087,3.086-3.087      c1.703,0,3.088,1.384,3.088,3.087C175.459,170.261,174.074,171.646,172.371,171.646z M172.371,167.271      c-0.709,0-1.287,0.577-1.287,1.287s0.578,1.287,1.287,1.287c0.71,0,1.288-0.577,1.288-1.287S173.082,167.271,172.371,167.271z"/>
			</g>
			<g>
				<g>

						<rect x="117.705" y="170.89" transform="matrix(0.7072 0.707 -0.707 0.7072 157.3434 -33.073)" fill="#C6CAE0" width="1.8" height="5.111"/>
				</g>
				<g>
					<g>

							<rect x="117.705" y="170.89" transform="matrix(0.7072 0.707 -0.707 0.7072 157.3434 -33.073)" fill="#C6CAE0" width="1.8" height="5.111"/>
					</g>
					<g>

							<rect x="116.05" y="172.545" transform="matrix(0.7072 0.707 -0.707 0.7072 157.3551 -33.0708)" fill="#C6CAE0" width="5.111" height="1.801"/>
					</g>
				</g>
			</g>
			<g>
				<rect x="134.043" y="154.619" fill="#C6CAE0" width="26.146" height="1.8"/>
			</g>
			<g>
				<rect x="124.189" y="154.619" fill="#C6CAE0" width="7.13" height="1.8"/>
			</g>
			<g>
				<g>

						<rect x="294.35" y="132.174" transform="matrix(0.7071 0.7071 -0.7071 0.7071 181.7451 -169.3114)" fill="#C6CAE0" width="1.8" height="5.112"/>
				</g>
				<g>
					<g>

							<rect x="294.35" y="132.174" transform="matrix(0.7071 0.7071 -0.7071 0.7071 181.7451 -169.3114)" fill="#C6CAE0" width="1.8" height="5.112"/>
					</g>
					<g>

							<rect x="292.694" y="133.83" transform="matrix(0.7071 0.7071 -0.7071 0.7071 181.7451 -169.3114)" fill="#C6CAE0" width="5.111" height="1.8"/>
					</g>
				</g>
			</g>
			<g>
				<rect x="317.301" y="149.009" fill="#C6CAE0" width="26.147" height="1.8"/>
			</g>
			<g>
				<rect x="307.449" y="149.009" fill="#C6CAE0" width="7.129" height="1.8"/>
			</g>
			<g>
				<g>

						<rect x="313.678" y="161.936" transform="matrix(0.7071 0.7071 -0.7071 0.7071 208.4509 -174.2615)" fill="#C6CAE0" width="1.8" height="5.112"/>
				</g>
				<g>
					<g>

							<rect x="313.678" y="161.936" transform="matrix(0.7071 0.7071 -0.7071 0.7071 208.4509 -174.2615)" fill="#C6CAE0" width="1.8" height="5.112"/>
					</g>
					<g>

							<rect x="312.022" y="163.592" transform="matrix(0.707 0.7072 -0.7072 0.707 208.4966 -174.2758)" fill="#C6CAE0" width="5.112" height="1.8"/>
					</g>
				</g>
			</g>
			<g>
				<g>

						<rect x="533.958" y="248.021" transform="matrix(0.7071 0.7071 -0.7071 0.7071 333.8413 -304.81)" fill="#C6CAE0" width="1.801" height="5.111"/>
				</g>
				<g>

						<rect x="532.303" y="249.677" transform="matrix(0.7072 0.707 -0.707 0.7072 333.7663 -304.7828)" fill="#C6CAE0" width="5.112" height="1.8"/>
				</g>
			</g>
		</g>
		<g>
			<g>
				<g>
					<path fill="#C6CAE0" d="M472.87,230.108v-0.137c0-0.415,0.122-0.808,0.352-1.138c0.27-0.385,0.667-0.659,1.115-0.778       l8.93-6.209c0.906-0.622,2.145-0.396,2.764,0.497c0.604,0.878,0.364,2.162-0.5,2.759l-7.102,4.937l7.104,4.939       c0.86,0.593,1.099,1.882,0.5,2.754c-0.623,0.9-1.862,1.124-2.765,0.501l-8.93-6.209c-0.45-0.118-0.849-0.395-1.117-0.781       C472.991,230.911,472.87,230.52,472.87,230.108z M474.67,230.09l-0.9,0.019h0.9c0,0.059,0.016,0.089,0.029,0.109       c0.027,0.039,0.066,0.063,0.115,0.069l0.219,0.028l9.261,6.438c0.083,0.059,0.199,0.039,0.257-0.044       c0.035-0.054,0.115-0.143-0.043-0.251l-9.234-6.42l9.231-6.417c0.163-0.112,0.083-0.199,0.044-0.255       c-0.056-0.08-0.174-0.1-0.26-0.04l-9.254,6.436l-0.215,0.029c-0.036,0.004-0.088,0.021-0.123,0.072       c-0.006,0.009-0.027,0.04-0.027,0.107V230.09z"/>
				</g>
			</g>
			<g>
				<g>
					<path fill="#C6CAE0" d="M482.586,230.113v-0.147c0-0.411,0.122-0.802,0.353-1.132c0.271-0.385,0.668-0.659,1.116-0.778       l8.93-6.209c0.902-0.622,2.139-0.397,2.759,0.497c0.603,0.859,0.372,2.157-0.493,2.758l-7.109,4.938l7.109,4.939       c0.867,0.598,1.1,1.892,0.492,2.76c-0.299,0.431-0.752,0.723-1.272,0.817s-1.048-0.021-1.484-0.323l-8.929-6.208       c-0.45-0.118-0.848-0.395-1.118-0.779C482.708,230.91,482.586,230.521,482.586,230.113z M484.387,230.096l-0.9,0.018h0.9       c0,0.054,0.016,0.084,0.03,0.104c0.036,0.051,0.089,0.066,0.118,0.069l0.217,0.028l9.261,6.438       c0.052,0.036,0.103,0.036,0.136,0.03c0.033-0.005,0.08-0.023,0.115-0.074c0.045-0.063,0.118-0.144-0.039-0.252l-9.239-6.419       l9.238-6.417c0.157-0.108,0.081-0.193,0.043-0.249c-0.059-0.085-0.174-0.104-0.257-0.047l-9.256,6.436l-0.214,0.029       c-0.03,0.004-0.088,0.02-0.127,0.075c-0.005,0.007-0.026,0.038-0.026,0.1V230.096z"/>
				</g>
			</g>
			<g>
				<g>
					<path fill="#C6CAE0" d="M492.303,229.703v-0.157c0-0.411,0.123-0.802,0.354-1.131c0.262-0.38,0.66-0.656,1.113-0.776       l8.927-6.208c0.912-0.621,2.149-0.393,2.767,0.5c0.6,0.86,0.367,2.154-0.499,2.755l-7.106,4.939l7.106,4.937       c0.864,0.599,1.101,1.887,0.497,2.758c-0.62,0.897-1.859,1.121-2.762,0.498l-8.93-6.21c-0.455-0.12-0.854-0.398-1.118-0.783       C492.426,230.503,492.303,230.112,492.303,229.703z M494.104,229.686l-0.9,0.018h0.9c0,0.051,0.014,0.077,0.025,0.095       c0.037,0.054,0.09,0.069,0.127,0.074l0.214,0.03l9.255,6.437c0.084,0.058,0.199,0.039,0.257-0.044       c0.038-0.057,0.114-0.145-0.044-0.255l-9.234-6.415l9.234-6.417c0.158-0.11,0.082-0.198,0.045-0.253       c-0.061-0.086-0.176-0.104-0.267-0.042l-9.246,6.431l-0.214,0.029c-0.03,0.005-0.087,0.02-0.122,0.07       c-0.017,0.023-0.03,0.05-0.03,0.103V229.686z"/>
				</g>
			</g>
			<g>
				<g>
					<path fill="#C6CAE0" d="M502.021,229.705v-0.162c0-0.399,0.118-0.785,0.342-1.115c0.276-0.393,0.673-0.668,1.12-0.789       l8.936-6.209c0.902-0.62,2.139-0.396,2.761,0.498c0.603,0.868,0.367,2.159-0.499,2.759l-7.104,4.938l7.104,4.937       c0.866,0.599,1.103,1.889,0.5,2.758c-0.305,0.436-0.758,0.727-1.279,0.821c-0.521,0.094-1.049-0.021-1.484-0.325l-8.934-6.208       c-0.447-0.12-0.846-0.395-1.112-0.777C502.139,230.487,502.021,230.104,502.021,229.705z M503.821,229.691l-0.9,0.014h0.9       c0,0.038,0.011,0.072,0.033,0.105c0.021,0.03,0.063,0.055,0.117,0.062l0.213,0.03l9.261,6.436       c0.073,0.051,0.208,0.025,0.257-0.046c0.035-0.051,0.114-0.141-0.047-0.251l-9.234-6.416l9.234-6.417       c0.162-0.113,0.083-0.199,0.046-0.253c-0.058-0.083-0.174-0.104-0.259-0.045l-9.258,6.434l-0.213,0.029       c-0.037,0.006-0.089,0.023-0.127,0.076c-0.013,0.021-0.023,0.055-0.023,0.094V229.691z"/>
				</g>
			</g>
		</g>
		<g>
			<g>
				<g>
					<path fill="#C6CAE0" d="M165.811,138.82c-0.269,0.387-0.667,0.663-1.117,0.78l-8.93,6.21c-0.902,0.623-2.141,0.398-2.764-0.501       c-0.599-0.872-0.36-2.161,0.5-2.754l7.105-4.939l-7.103-4.937c-0.864-0.597-1.103-1.881-0.5-2.759       c0.62-0.895,1.857-1.119,2.764-0.498l8.93,6.21c0.448,0.118,0.846,0.394,1.114,0.777c0.23,0.331,0.352,0.724,0.352,1.138v0.137       C166.162,138.096,166.042,138.488,165.811,138.82z M164.362,137.548c0-0.067-0.021-0.099-0.027-0.106       c-0.036-0.052-0.087-0.068-0.123-0.073l-0.215-0.028l-9.253-6.436c-0.087-0.06-0.205-0.041-0.26,0.039       c-0.039,0.057-0.12,0.143,0.044,0.256l9.231,6.417l-9.233,6.42c-0.159,0.106-0.079,0.197-0.043,0.251       c0.057,0.083,0.173,0.102,0.257,0.044l9.261-6.438l0.218-0.028c0.049-0.007,0.088-0.031,0.115-0.069       c0.014-0.021,0.03-0.051,0.03-0.11v-0.019V137.548z"/>
				</g>
			</g>
			<g>
				<g>
					<path fill="#C6CAE0" d="M156.093,138.822c-0.27,0.385-0.668,0.661-1.118,0.778l-8.929,6.209       c-0.436,0.302-0.963,0.417-1.484,0.323c-0.521-0.095-0.973-0.387-1.272-0.817c-0.608-0.868-0.375-2.162,0.491-2.76l7.109-4.939       l-7.108-4.938c-0.867-0.601-1.097-1.898-0.494-2.758c0.621-0.896,1.856-1.119,2.759-0.498l8.93,6.21       c0.448,0.119,0.846,0.394,1.116,0.777c0.23,0.331,0.352,0.722,0.352,1.132v0.148       C156.445,138.097,156.324,138.487,156.093,138.822z M154.646,137.542c0-0.062-0.022-0.092-0.027-0.1       c-0.039-0.055-0.096-0.07-0.126-0.075l-0.214-0.028l-9.255-6.436c-0.083-0.059-0.199-0.039-0.258,0.047       c-0.039,0.055-0.114,0.14,0.043,0.249l9.238,6.417l-9.239,6.418c-0.157,0.108-0.083,0.189-0.04,0.253       c0.035,0.05,0.082,0.068,0.115,0.074c0.033,0.006,0.084,0.006,0.136-0.03l9.261-6.438l0.217-0.028       c0.029-0.004,0.082-0.019,0.118-0.069c0.014-0.021,0.031-0.051,0.031-0.104l-0.001-0.018L154.646,137.542z"/>
				</g>
			</g>
			<g>
				<g>
					<path fill="#C6CAE0" d="M146.38,138.401c-0.265,0.385-0.664,0.662-1.118,0.783l-8.93,6.21       c-0.902,0.622-2.142,0.399-2.762-0.498c-0.603-0.871-0.368-2.16,0.498-2.759l7.106-4.937l-7.106-4.938       c-0.866-0.601-1.099-1.895-0.499-2.755c0.616-0.894,1.854-1.121,2.766-0.5l8.927,6.207c0.453,0.121,0.851,0.397,1.113,0.777       c0.231,0.328,0.354,0.719,0.354,1.13v0.157C146.729,137.689,146.606,138.079,146.38,138.401z M144.928,137.122       c0-0.052-0.014-0.078-0.031-0.102c-0.035-0.051-0.091-0.066-0.121-0.07l-0.214-0.029l-9.246-6.431       c-0.091-0.062-0.207-0.044-0.267,0.042c-0.038,0.055-0.114,0.143,0.045,0.252l9.235,6.417l-9.235,6.415       c-0.159,0.111-0.083,0.199-0.044,0.255c0.058,0.084,0.172,0.103,0.257,0.043l9.255-6.435l0.214-0.03       c0.037-0.005,0.089-0.021,0.125-0.074c0.012-0.018,0.026-0.045,0.026-0.096l-0.001-0.018L144.928,137.122z"/>
				</g>
			</g>
			<g>
				<g>
					<path fill="#C6CAE0" d="M136.661,138.407c-0.267,0.382-0.664,0.656-1.112,0.777l-8.934,6.207       c-0.435,0.305-0.962,0.42-1.484,0.325c-0.521-0.094-0.975-0.385-1.279-0.82c-0.603-0.869-0.366-2.16,0.5-2.759l7.105-4.937       l-7.104-4.938c-0.866-0.601-1.101-1.891-0.499-2.759c0.622-0.894,1.859-1.119,2.761-0.498l8.935,6.209       c0.447,0.12,0.844,0.396,1.121,0.788c0.224,0.331,0.342,0.717,0.342,1.116v0.162       C137.011,137.681,136.894,138.064,136.661,138.407z M135.211,137.12c0-0.039-0.01-0.073-0.023-0.094       c-0.038-0.054-0.09-0.071-0.126-0.076l-0.214-0.029l-9.256-6.434c-0.085-0.059-0.202-0.038-0.259,0.045       c-0.037,0.054-0.116,0.14,0.046,0.252l9.234,6.417l-9.235,6.416c-0.161,0.111-0.082,0.2-0.046,0.252       c0.049,0.071,0.184,0.097,0.256,0.045l9.26-6.435l0.214-0.03c0.054-0.007,0.097-0.031,0.118-0.062       c0.022-0.033,0.032-0.067,0.032-0.105V137.12z"/>
				</g>
			</g>
		</g>
		<g id="XMLID_429_">
			<g>
				<g>
					<g>
						<path fill="#CCCCD1" d="M172.755,203.814v14.728h28.324v-0.52c0-7.848,6.36-14.208,14.208-14.208h0.287        c7.846,0,14.207,6.36,14.207,14.208v215.222H88.978l-3.772-229.43H172.755z"/>
					</g>
				</g>
			</g>
			<g>
				<g>
					<path fill="#F6F4F6" d="M216.085,203.814c-6.367,0-15.084,3.618-15.084,15.661l-0.104,198.486       c0,8.361-3.588,15.364-13.699,15.364c-6.385,0-15.442-1.825-15.442-16.299l-103.4,5.669l0.103-203.221       c0-8.657,4.791-15.661,15.313-15.661H216.085z"/>
				</g>
			</g>
			<g id="XMLID_877_">
				<g id="XMLID_878_">
					<linearGradient id="XMLID_3_" gradientUnits="userSpaceOnUse" x1="134.4673" y1="327.4658" x2="134.4673" y2="266.3877">
						<stop offset="0" style="stop-color:#F6C726"/>
						<stop offset="1" style="stop-color:#E94C04"/>
					</linearGradient>
					<polygon id="XMLID_881_" fill="url(#XMLID_3_)" points="177.047,274.907 163.584,268.354 150.678,274.975 137.772,274.975        130.246,268.489 116.969,281.461 104.063,274.975 90.971,268.489 78.981,274.444 78.981,327.466 189.953,327.466        189.953,266.388      "/>
				</g>
				<g id="XMLID_883_">
					<polygon id="XMLID_884_" fill="#909ACF" points="177.232,288.398 163.77,274.907 148.293,289.983 129.112,281.729        117.155,295.839 104.063,281.461 90.786,288.147 78.981,282.276 78.981,327.466 189.953,327.466 189.953,281.729      "/>
				</g>
				<g id="XMLID_890_">
					<polygon id="XMLID_118_" fill="#261AAB" points="176.861,281.461 163.956,288.014 151.575,302.435 137.586,294.701        130.061,288.239 116.969,307.847 103.877,301.187 90.786,308.034 78.981,301.832 78.981,327.466 189.953,327.466        189.953,289.341      "/>
				</g>
				<g id="XMLID_430_">
					<g id="XMLID_955_">
						<polygon fill="#F5C826" points="177.047,304.399 163.956,294.835 151.05,307.941 137.772,301.388 130.092,312.638         107.644,315.193 90.971,301.254 78.981,307.29 78.981,327.466 189.953,327.466 189.953,299.978       "/>
					</g>
				</g>
			</g>
			<g>
				<g>
					<rect x="144.839" y="258.12" fill="#909ACF" width="45.259" height="3.771"/>
				</g>
				<g>
					<rect x="78.836" y="258.12" fill="#909ACF" width="32.059" height="3.771"/>
				</g>
				<g>
					<rect x="118.438" y="258.12" fill="#909ACF" width="20.744" height="3.771"/>
				</g>
				<g>
					<rect x="78.836" y="248.691" fill="#909ACF" width="45.259" height="3.771"/>
				</g>
				<g>
					<rect x="158.04" y="248.691" fill="#909ACF" width="32.058" height="3.771"/>
				</g>
				<g>
					<rect x="129.753" y="248.691" fill="#909ACF" width="20.743" height="3.771"/>
				</g>
				<g>
					<rect x="144.839" y="237.377" fill="#909ACF" width="45.259" height="3.771"/>
				</g>
				<g>
					<rect x="78.836" y="237.377" fill="#909ACF" width="32.059" height="3.771"/>
				</g>
				<g>
					<rect x="118.438" y="237.377" fill="#909ACF" width="20.744" height="3.771"/>
				</g>
				<g>
					<rect x="78.836" y="227.947" fill="#909ACF" width="45.259" height="3.771"/>
				</g>
				<g>
					<rect x="158.04" y="227.947" fill="#909ACF" width="32.058" height="3.771"/>
				</g>
				<g>
					<rect x="129.753" y="227.947" fill="#909ACF" width="20.743" height="3.771"/>
				</g>
			</g>
		</g>
		<g>
			<g>
				<g>
					<path fill="#EE6D32" d="M368.206,153.956l1.65-1.648l2.74,2.74c0.549,0.549,1.402,1.009,1.885,0.526l2.422-2.422l-1.868-1.869       c-0.551-0.549-0.37-0.967,0.112-1.448l2.62-2.621c0.481-0.481,0.946-0.708,1.495-0.159l1.869,1.869l2.084-2.083       c0.482-0.483,0.361-1.676-0.188-2.224l-2.741-2.741l1.313-1.312c0.482-0.482,0.586-1.301,0.036-1.851l-2.983-2.983       c-0.55-0.551-1.363-0.441-1.846,0.041l-1.312,1.313l-2.413-2.415c-0.55-0.548-1.506-0.434-1.988,0.049l-2.084,2.084       l1.303,1.301c0.548,0.549,0.891,1.581,0.408,2.064l-2.621,2.62c-0.482,0.481-1.467,0.093-2.016-0.455l-1.302-1.302       l-2.421,2.421c-0.483,0.483-0.261,1.1,0.289,1.649l2.414,2.414l-1.65,1.649c-0.482,0.481-0.535,1.24,0.015,1.789l2.983,2.984       C366.961,154.487,367.723,154.439,368.206,153.956z"/>
				</g>
			</g>
			<g>
				<g>
					<path fill="#F5C826" d="M366.711,134.482l-1.676-1.677l2.809-2.807c0.549-0.55,1.187-1.528,0.703-2.012l-2.549-2.55       l-2.021,2.021c-0.55,0.55-0.713,0.372-1.194-0.11l-2.62-2.619c-0.483-0.483-0.9-0.886-0.351-1.435l2.021-2.021l-2.019-2.02       c-0.482-0.482-1.673-0.056-2.223,0.493l-2.808,2.808l-1.464-1.464c-0.483-0.482-1.39-0.81-1.938-0.259l-2.984,2.983       c-0.549,0.549-0.365,1.599,0.117,2.082l1.464,1.464l-2.333,2.333c-0.55,0.549-0.488,1.253-0.006,1.735l2.018,2.019l1.203-1.202       c0.549-0.549,1.771-0.951,2.254-0.469l2.62,2.62c0.481,0.482-0.159,1.465-0.709,2.014l-1.202,1.202l2.551,2.55       c0.482,0.482,0.975,0.333,1.523-0.216l2.334-2.334l1.676,1.675c0.481,0.483,1.32,0.456,1.869-0.093l2.984-2.985       C367.309,135.66,367.194,134.965,366.711,134.482z"/>
				</g>
			</g>
			<g>
				<g>
					<path fill="#151D79" d="M369.614,143.136l0.012,1.662l-9.602-9.603l-1.025,1.026l9.582,9.582l-1.598-0.028l-0.027,1.449       l3.394,0.061c0.198,0.009,0.384-0.072,0.522-0.21c0.14-0.138,0.217-0.324,0.215-0.521l-0.022-3.43L369.614,143.136z"/>
					<path fill="#151D79" d="M363.542,129.931l1.599,0.029l0.025-1.45l-3.394-0.06h-0.012c-0.191,0-0.375,0.074-0.51,0.209       c-0.139,0.138-0.217,0.325-0.216,0.521l0.024,3.43l1.449-0.011l-0.012-1.662l9.602,9.602l1.025-1.024L363.542,129.931z"/>
				</g>
			</g>
		</g>
		<g>
			<g>
				<g>
					<g>
						<g>
							<path fill="#CCCCD1" d="M337.164,400.767c0-11.508,0-28.195,0-28.195h-32.713h-32.712c0,0,0,16.688,0,28.195         c0,9.122-27.941,16.865-39.535,19.686c-2.908,0.707-4.951,3.309-4.951,6.302v0.117c0,3.583,2.905,6.487,6.487,6.487h141.42         c3.583,0,6.488-2.904,6.488-6.487v-0.117c0-2.993-2.043-5.595-4.951-6.302C365.104,417.632,337.164,409.889,337.164,400.767z         "/>
						</g>
					</g>
				</g>
			</g>
			<g>
				<g>
					<g>
						<path fill="#F1EFF1" d="M154.033,367.186v11.658c0,5.022,3.979,9.095,8.887,9.095h283.063c4.908,0,8.886-4.072,8.886-9.095        v-11.658H154.033z"/>
					</g>
				</g>
			</g>
			<g>
				<g>
					<g>
						<g>
							<path fill="#CCCCD1" d="M445.018,179.966H163.884c-4.875,0-8.825,4.044-8.825,9.033v178.399h298.784V188.999         C453.842,184.01,449.891,179.966,445.018,179.966z"/>
						</g>
					</g>
				</g>
			</g>
			<g>
				<g>
					<g>
						<g>
							<linearGradient id="SVGID_4_" gradientUnits="userSpaceOnUse" x1="169.4023" y1="273.6289" x2="439.8579" y2="273.6289">
								<stop offset="0" style="stop-color:#F6C726"/>
								<stop offset="1" style="stop-color:#E94C04"/>
							</linearGradient>
							<rect x="169.402" y="193.245" fill="url(#SVGID_4_)" width="270.456" height="160.767"/>
						</g>
					</g>
				</g>
			</g>
			<g>
				<g>
					<g>
						<g>
							<g>
								<g>
									<path fill="#FFFFFF" d="M307.52,201.107v25.908c32.456,2.284,56.07,29.628,57.508,61.733           c0.303,6.729-0.733,13.252-2.813,19.388l25.917,7.534c2.726-8.454,4.243-17.448,4.252-26.808           C392.434,241.338,354.684,202.639,307.52,201.107z"/>
								</g>
							</g>
						</g>
					</g>
					<g>
						<g>
							<g>
								<path fill="#5CCFFF" d="M302.896,226.85v-25.784c-23.474,0.459-44.657,10.153-60.146,25.585l17.944,17.468          C272.131,233.544,287.342,226.913,302.896,226.85z"/>
							</g>
						</g>
					</g>
					<g>
						<g>
							<g>
								<path fill="#F8DE78" d="M245.973,354.012h56.923v-3.363c-34.589-0.124-60.18-28.433-61.678-61.899          c-0.703-15.701,5.768-30.307,16.182-41.385l-17.883-17.41c-14.047,15.538-22.614,36.127-22.639,58.724          C216.852,314.621,228.09,337.935,245.973,354.012z"/>
							</g>
						</g>
					</g>
					<g>
						<g>
							<g>
								<path fill="#261AAB" d="M363.286,354.012c10.254-9.229,18.322-20.839,23.332-33.965l-26.056-7.574          c-9.017,20.801-30.339,36.198-53.042,37.987v3.552H363.286z"/>
							</g>
						</g>
					</g>
				</g>
				<g>
					<path fill="#151D79" d="M318.453,314.104h-27.646c-14.34,0-26.073-11.733-26.073-26.075l0,0       c0-14.341,11.733-26.074,26.073-26.074h27.646c14.341,0,26.074,11.733,26.074,26.074l0,0       C344.527,302.371,332.793,314.104,318.453,314.104z"/>
					<polygon fill="#FFFFFF" points="320.909,288.528 295.264,303.334 295.264,273.723      "/>
				</g>
			</g>
		</g>
		<g>
			<g>
				<g>
					<g>
						<circle fill="#F5C826" cx="481.103" cy="405.025" r="56.245"/>
					</g>
				</g>
			</g>
			<g>
				<g>
					<linearGradient id="SVGID_5_" gradientUnits="userSpaceOnUse" x1="437.0073" y1="405.0254" x2="525.1987" y2="405.0254">
						<stop offset="0" style="stop-color:#F6C726"/>
						<stop offset="1" style="stop-color:#E94C04"/>
					</linearGradient>
					<circle fill="url(#SVGID_5_)" cx="481.103" cy="405.025" r="44.096"/>
				</g>
			</g>
			<g>
				<g>
					<circle fill="#F5C826" cx="481.103" cy="405.025" r="29.83"/>
				</g>
			</g>
			<g>
				<g>
					<linearGradient id="SVGID_6_" gradientUnits="userSpaceOnUse" x1="464.9292" y1="405.0254" x2="497.2778" y2="405.0254">
						<stop offset="0" style="stop-color:#F6C726"/>
						<stop offset="1" style="stop-color:#E94C04"/>
					</linearGradient>
					<circle fill="url(#SVGID_6_)" cx="481.104" cy="405.025" r="16.174"/>
				</g>
			</g>
			<g>
				<path fill="#E94C04" d="M484.122,405.831v7.915c0,1.618-1.301,2.944-2.92,2.944c-1.62,0-2.921-1.326-2.921-2.944v-7.915      c-2.225-1.081-3.765-3.311-3.765-5.888c0-3.635,2.885-6.583,6.52-6.583c3.637,0,6.654,2.948,6.654,6.583      C487.69,402.521,486.069,404.75,484.122,405.831z"/>
			</g>
			<path fill="#F1EFF1" d="M561.42,382.649c-8.329,0-15.26,6.04-16.674,13.835h-60.664c-1.646,0-2.979,1.471-2.979,3.117     c0,1.646,1.334,3.117,2.979,3.117h4.163v10.448c0,1.646,1.472,2.979,3.118,2.979c1.645,0,3.117-1.334,3.117-2.979v-10.448h6.234     v10.448c0,1.646,1.473,2.979,3.117,2.979c1.646,0,3.118-1.334,3.118-2.979v-10.448h37.796     c1.416,7.794,8.346,13.972,16.674,13.972c9.347,0,16.951-7.674,16.951-17.021C578.372,390.323,570.767,382.649,561.42,382.649z      M561.42,410.455c-5.909,0-10.717-4.808-10.717-10.717s4.808-10.716,10.717-10.716s10.717,4.807,10.717,10.716     S567.33,410.455,561.42,410.455z"/>
		</g>
		<g>
			<g id="XMLID_431_">
				<g id="XMLID_433_">
					<g>
						<path fill="#CCCCD1" d="M35.952,344.009v73.005c0,0-1.518,16.345,21.439,16.345c32.754,0,128.554-0.021,128.554-0.021        c-1.958-0.053-14.177-1.106-14.177-16.292v-55.239c0,0,1.716-17.798-16.734-17.798H35.952z"/>
					</g>
				</g>
				<g id="XMLID_432_">
					<path fill="#FFFFFF" d="M186.309,433.338h-0.364C186.174,433.345,186.309,433.338,186.309,433.338z"/>
				</g>
			</g>
			<g>
				<g>
					<rect x="139.927" y="406.867" fill="#909ACF" width="23.32" height="3.772"/>
				</g>
				<g>
					<rect x="105.92" y="406.867" fill="#909ACF" width="16.518" height="3.772"/>
				</g>
				<g>
					<rect x="126.325" y="406.867" fill="#909ACF" width="10.688" height="3.772"/>
				</g>
				<g>
					<rect x="105.92" y="397.438" fill="#909ACF" width="23.319" height="3.772"/>
				</g>
				<g>
					<rect x="146.73" y="397.438" fill="#909ACF" width="16.518" height="3.772"/>
				</g>
				<g>
					<rect x="132.154" y="397.438" fill="#909ACF" width="10.688" height="3.772"/>
				</g>
				<g>
					<rect x="139.927" y="386.123" fill="#909ACF" width="23.32" height="3.772"/>
				</g>
				<g>
					<rect x="105.92" y="386.123" fill="#909ACF" width="16.518" height="3.772"/>
				</g>
				<g>
					<rect x="126.325" y="386.123" fill="#909ACF" width="10.688" height="3.772"/>
				</g>
				<g>
					<rect x="105.92" y="376.694" fill="#909ACF" width="23.319" height="3.772"/>
				</g>
				<g>
					<rect x="146.73" y="376.694" fill="#909ACF" width="16.518" height="3.772"/>
				</g>
				<g>
					<rect x="132.154" y="376.694" fill="#909ACF" width="10.688" height="3.772"/>
				</g>
			</g>
			<g>
				<g>
					<path fill="#F6F4F6" d="M142.939,363.924c-5.375-17.632,12.105-19.906,12.105-19.906s-102.111,0-119.08,0       c-18.079,0-19.546,11.177-17.937,19.906H142.939z"/>
				</g>
			</g>
			<g id="XMLID_645_">
				<g id="XMLID_18380_">
					<path fill="#FFFFFF" d="M72.429,392.385l-25.432-8.277c3.649-11.25,13.618-18.504,25.432-18.504V392.385z"/>
				</g>
				<g id="XMLID_18374_">
					<g>
						<path fill="#151D79" d="M74.904,396.397l25.438,8.271c-4.563,14.063-19.653,21.762-33.702,17.189        c-14.046-4.568-21.736-19.675-17.168-33.738l0,0L74.904,396.397z"/>
					</g>
				</g>
				<g id="XMLID_18372_">
					<path fill="#5CCFFF" d="M74.904,396.397l15.724-21.665c9.559,6.951,13.362,18.686,9.714,29.936L74.904,396.397z"/>
				</g>
				<g id="XMLID_18365_">
					<path fill="#F5C826" d="M74.904,396.397v-26.781c5.91,0,10.94,1.641,15.724,5.116L74.904,396.397z"/>
				</g>
			</g>
		</g>
		<g>
			<g>
				<g>
					<g>
						<g>
							<g>
								<path fill-rule="evenodd" clip-rule="evenodd" fill="#5CCFFF" d="M232.424,114.9l0.022,0.027          c0.534,0.68,1.52,0.792,2.194,0.252l0.07-0.057c0.776-0.622,1.928-0.365,2.367,0.526l0.016,0.032          c0.381,0.775,1.322,1.092,2.093,0.702l0.08-0.041c0.889-0.447,1.962,0.044,2.206,1.008l0.009,0.035          c0.211,0.838,1.066,1.342,1.901,1.122l0.088-0.022c0.962-0.253,1.911,0.45,1.949,1.443l0.001,0.035          c0.032,0.863,0.764,1.535,1.627,1.494l0.09-0.005c0.994-0.048,1.774,0.838,1.605,1.817l-0.006,0.034          c-0.146,0.852,0.428,1.66,1.282,1.8l0.088,0.015c0.982,0.16,1.562,1.188,1.193,2.111l-0.014,0.033          c-0.321,0.802,0.074,1.712,0.879,2.025l0.084,0.033c0.926,0.361,1.281,1.487,0.727,2.313l-0.02,0.028          c-0.481,0.719-0.284,1.691,0.438,2.165l0.076,0.049c0.832,0.546,0.944,1.722,0.23,2.414l-0.026,0.026          c-0.62,0.602-0.628,1.593-0.021,2.208l0.064,0.063c0.7,0.706,0.565,1.879-0.276,2.408l-0.031,0.02          c-0.731,0.46-0.947,1.429-0.48,2.155l0.049,0.076c0.538,0.837,0.163,1.956-0.771,2.3l-0.034,0.012          c-0.811,0.298-1.223,1.201-0.917,2.009l0.032,0.084c0.353,0.93-0.248,1.947-1.231,2.088l-0.037,0.006          c-0.855,0.123-1.446,0.919-1.315,1.773l0.014,0.09c0.151,0.982-0.647,1.853-1.639,1.786l-0.036-0.003          c-0.862-0.058-1.606,0.6-1.655,1.463l-0.004,0.089c-0.057,0.993-1.019,1.678-1.976,1.406l-0.035-0.01          c-0.831-0.235-1.694,0.253-1.922,1.086l-0.024,0.087c-0.262,0.96-1.345,1.43-2.225,0.965l-0.032-0.016          c-0.764-0.403-1.71-0.106-2.105,0.662l-0.042,0.081c-0.456,0.883-1.613,1.117-2.376,0.48l-0.028-0.023          c-0.664-0.554-1.65-0.458-2.198,0.211l-0.056,0.069c-0.63,0.77-1.811,0.759-2.425-0.023l-0.022-0.028          c-0.534-0.679-1.52-0.791-2.194-0.251l-0.071,0.057c-0.775,0.622-1.927,0.365-2.366-0.526l-0.016-0.033          c-0.381-0.775-1.322-1.091-2.093-0.702l-0.081,0.041c-0.888,0.448-1.961-0.043-2.206-1.007l-0.009-0.035          c-0.211-0.838-1.065-1.342-1.901-1.122l-0.088,0.022c-0.961,0.253-1.91-0.45-1.948-1.443l-0.001-0.036          c-0.033-0.862-0.764-1.534-1.627-1.493l-0.09,0.005c-0.994,0.047-1.775-0.838-1.605-1.817l0.005-0.034          c0.147-0.853-0.427-1.66-1.28-1.8l-0.089-0.014c-0.982-0.161-1.562-1.188-1.193-2.111l0.013-0.034          c0.322-0.802-0.073-1.712-0.878-2.025l-0.085-0.033c-0.926-0.361-1.28-1.487-0.727-2.313l0.02-0.029          c0.481-0.719,0.284-1.691-0.438-2.165l-0.076-0.049c-0.832-0.546-0.944-1.722-0.23-2.414l0.026-0.025          c0.62-0.602,0.629-1.594,0.021-2.208l-0.065-0.064c-0.699-0.706-0.564-1.88,0.277-2.408l0.031-0.02          c0.731-0.461,0.947-1.429,0.479-2.155l-0.048-0.076c-0.538-0.837-0.163-1.956,0.771-2.299l0.033-0.012          c0.812-0.298,1.224-1.201,0.918-2.01l-0.032-0.084c-0.353-0.93,0.248-1.947,1.232-2.089l0.035-0.005          c0.855-0.123,1.446-0.919,1.315-1.773l-0.014-0.09c-0.151-0.982,0.648-1.853,1.64-1.786l0.036,0.003          c0.861,0.057,1.605-0.6,1.655-1.463l0.004-0.089c0.057-0.993,1.019-1.679,1.975-1.406l0.035,0.009          c0.832,0.236,1.695-0.252,1.923-1.085l0.024-0.088c0.262-0.959,1.345-1.429,2.225-0.965l0.031,0.017          c0.765,0.403,1.711,0.106,2.106-0.662l0.042-0.081c0.456-0.883,1.613-1.117,2.376-0.48l0.027,0.022          c0.665,0.554,1.651,0.459,2.198-0.21l0.057-0.07C230.629,114.106,231.81,114.118,232.424,114.9z"/>
							</g>
						</g>
					</g>
				</g>
			</g>
			<g id="XMLID_136_">
				<g id="XMLID_137_">
					<g id="XMLID_138_">
						<path fill="#FFFFFF" d="M229.465,132.984c0,4.209-2.661,6.407-5.571,6.407c-3.065,0-5.48-2.29-5.48-6.067        c0-3.59,2.198-6.314,5.635-6.314C227.516,127.01,229.465,129.548,229.465,132.984z M221.913,133.201        c0,2.104,0.712,3.622,2.072,3.622c1.333,0,1.982-1.362,1.982-3.622c0-2.042-0.557-3.622-2.012-3.622        C222.563,129.579,221.913,131.188,221.913,133.201z M224.141,147.811l11.546-20.801h2.538l-11.577,20.801H224.141z         M243.951,141.343c0,4.209-2.661,6.407-5.571,6.407c-3.033,0-5.448-2.291-5.479-6.067c0-3.59,2.197-6.314,5.634-6.314        C242.002,135.368,243.951,137.905,243.951,141.343z M236.43,141.559c-0.031,2.105,0.681,3.621,2.043,3.621        c1.332,0,1.981-1.361,1.981-3.621c0-2.044-0.526-3.621-1.981-3.621C237.049,137.938,236.43,139.546,236.43,141.559z"/>
					</g>
				</g>
			</g>
		</g>
		<g>
			<g>
				<g>
					<g>
						<g>
							<path fill="#EE6D32" d="M373.631,429.583h33.377c-1.084,16.353-14.657,29.298-31.283,29.298         c-17.334,0-31.388-14.053-31.388-31.388c0-16.634,12.94-30.206,29.294-31.284V429.583z"/>
						</g>
					</g>
				</g>
			</g>
			<g>
				<g>
					<g>
						<g>
							<path fill="#5CCFFF" d="M406.75,425.397h-26.625l24.061-11.429C405.621,417.629,406.477,421.456,406.75,425.397         L406.75,425.397z"/>
						</g>
					</g>
				</g>
			</g>
		</g>
		<g>
			<path fill="#F79D56" d="M242.802,421.051c-3.193-0.164-4.8-3.71-5.194-3.74c-0.097-0.007-0.217-0.097-0.368,0.247     c-0.43,0.977,0.597,2.947,1.047,3.37c-1.237,0.586-1.608,0.791-3.054,1.301c-2.195,0.774-3.828,1.396-2.665,4.341     c0.649,1.644,2.823,2.242,2.957,2.396c0.12,0.139,0.651,0.123,0.835,0.128c0.661,0.02,1.384-0.022,2.826-1.299     c0.495-0.438,3.179-1.932,4.567-2.475L242.802,421.051z"/>
			<g>
				<g>
					<g>
						<path fill="#151D79" d="M274.292,405.171c-1.332,4.435-3.914,7.511-8.821,15.363c-1.776,2.843-14.11,3.235-22.7,5.135        l-0.834-4.676l17.897-4.44c0,0,7.46-15.542,12-16.699C273.856,399.337,275.831,400.054,274.292,405.171z"/>
					</g>
				</g>
			</g>
			<path fill="#F79D56" d="M296.307,482.128c-0.041-0.029-0.104-0.048-0.156-0.072c-1.861-2.927-0.748-11.578-4.107-16.787     c-3.895-6.039-3.416-13.472-3.416-19.256l-12.81-4.745c0,6.584,7.037,19.953,9.97,27.196c3.772,9.318,6.562,12.621,5.736,17.192     c-1.133,2.285-2.809,5.137-4.904,6.33c-0.346,0.196,0.367,1.427,2.594,0.885c4.08-0.992,2.843-4.959,6.402-6.854     C298.155,484.664,297.413,482.947,296.307,482.128z"/>
			<path fill="#F79D56" d="M262.325,430.369c-4.32,2.193-13.877,11.684-14.091,12.446c-0.215,0.764-0.106,1.582,0.3,2.264     c0,0,15.17,18.378,15.979,21.798c-0.802,2.575-1.51,6.435-2.793,7.839c-0.269,0.293,0.787,1.245,2.74,0.045     c3.577-2.197,1.572-4.312,3.835-7.649c2.633-3.884,0.269-3.882-1.169-4.219c-3.093-3.067-4.365-14.112-9.015-18.449     c0,0,11.138-3.942,14.347-7.384C274.794,434.552,265.21,428.904,262.325,430.369z"/>
			<g>
				<g>
					<g>
						<path fill="#151D79" d="M288,368.825c-5.157-1.107-7.888,1.691-7.888,1.691c-15.711-2.413-18.663,20.026-11.506,25.619        c5.797,4.532,10.64,1.407,10.64,1.407s3.271,2.44,8.282,3.211c3.1,0.477,6.846-1.561,6.846-1.561s4.385,3.135,7.744-1.502        c3.36-4.635-1.609-9.549-4.25-9.598c0,0,3.162-3.808-1.174-6.334C294.984,380.763,297.85,370.939,288,368.825z"/>
					</g>
				</g>
			</g>
			<path fill="#F79D56" d="M288.557,378.674c-0.816-2.266-2.469-4.235-4.791-5.403c-1.534-0.772-3.177-1.102-4.779-1.034     c-3.42,0.143-6.664,2.086-8.312,5.361l-1.723,3.425c-1.585,3.151-0.494,6.704,0.604,9.803c1.012,2.855,3.436,3.871,5.924,4.014     l-0.032,1.607l-0.039,1.945c-1.612,0.282-3.071,1.022-4.083,2.195c-1.264,1.466-0.408,3.07,0.649,3.606     c2.863,1.098,8.814-1.225,9.69-3.937c-0.244-0.284-0.518-0.541-0.813-0.774c0.009-0.045,0.015-0.091-0.006-0.139     c-0.532-1.223-0.363-3.959-0.246-5.259c0.404-0.141,0.768-0.289,1.064-0.436c1.833-0.904,3.715-1.896,4.705-3.863l1.723-3.425     C289.346,383.873,289.432,381.104,288.557,378.674z"/>
			<g>
				<g>
					<path fill="#151D79" d="M284.047,384.021c-6.994,1.137-7.766-6.404-7.367-9.508c0.834-6.489,9.311-5.239,12.276-2.011       c1.837,2.001,5.103,7.42,3.694,14.152s-8.279,10.916-8.279,10.916c-7.551-5.535,0.251-10.839,0.251-10.839L284.047,384.021z"/>
				</g>
			</g>
			<g>
				<path fill="#FFFEFF" d="M275.941,389.588c-0.815,1.07-2.3,1.445-3.546,0.818c-1.245-0.627-1.828-2.042-1.455-3.334      L275.941,389.588z"/>
			</g>
			<g>
				<path fill="#261AAB" d="M285.188,424.189c-3.518-4.901-2.248-11.492-2.158-20.482c0.012-1.32-0.572-2.515-1.359-3.454      c-2.235-0.241-6.184,1.575-8.508,1.676c-1.066,0.051-1.778-0.254-1.829-1.282c-0.013-0.013-0.013-0.038-0.013-0.063      c-0.082,0.083-0.16,0.188-0.24,0.289c-0.004,0.007-0.008,0.01-0.014,0.017c-0.037,0.05-0.076,0.088-0.113,0.14      c-1.371,1.637-4.458,3.263-5.156,4.927c-0.737,1.739,0.838,3.467,2.819,4.024c0.597,5.016,2.856,10.959-1.347,13.969      c-3.949,2.807-7.365,7.162-7.365,7.162c11.81,13.333,29.549,16.978,29.549,16.978      C288.172,443.364,291.665,433.206,285.188,424.189z"/>
			</g>
			<g>
				<path fill="#261AAB" d="M296.678,481.475c-1.371,1.033-4.072,7.95-5.332,9.912c-1.033,1.674-4.06,0.941-3.797-0.563      c-1.336,1.774-4.007,2.395-3.761,4.098c0.187,1.29,3.966,1.238,5.11,1.153c2.492-0.138,3.17-2.193,3.706-4.568      c0.611-2.713,2.181-4.259,3.067-5.073c-0.123,1.626,0.058,5.634-0.039,6.904h0.434c0.146-2.457,0.449-4.762,1.26-7.215      C297.905,484.369,297.699,482.84,296.678,481.475z"/>
			</g>
			<g>
				<path fill="#261AAB" d="M268.712,462.921c-1.171,1.311-2.387,8.514-3.237,10.676c-0.683,1.836-3.943,1.872-4.01,0.384      c-0.97,2.002-3.563,3.235-2.931,4.788c0.479,1.178,4.334,0.216,5.486-0.141c2.517-0.732,2.751-2.843,2.768-5.222      c0.02-2.718,1.28-4.561,2.004-5.546c0.238,1.57,1.318,5.322,1.504,6.549l0.444-0.105c-0.401-2.362-0.607-4.618-0.326-7.137      C270.616,465.366,270.063,463.968,268.712,462.921z"/>
			</g>
			<g>
				<g>
					<g>
						<g>
							<path fill-rule="evenodd" clip-rule="evenodd" fill="#EE6D32" d="M288.79,463.403l25.902,0.005         c2.818,0.001,4.973-2.515,4.539-5.3l-1.703-10.952c-0.348-2.237-2.273-3.887-4.537-3.888l-22.492-0.005         c-2.264,0-4.19,1.649-4.539,3.887l-1.708,10.951C283.817,460.887,285.971,463.402,288.79,463.403z"/>
						</g>
					</g>
				</g>
				<g>
					<g>
						<g>
							<path fill="#FFFFFF" d="M304.7,445.943h-5.916c-2.585,0-4.689-2.103-4.689-4.688v-1.276c0-2.586,2.104-4.689,4.689-4.689         h5.916c2.586,0,4.688,2.104,4.688,4.689v1.276C309.388,443.841,307.286,445.943,304.7,445.943z M298.784,437.509         c-1.361,0-2.469,1.108-2.469,2.47v1.276c0,1.361,1.107,2.47,2.469,2.47h5.916c1.361,0,2.469-1.108,2.469-2.47v-1.276         c0-1.361-1.107-2.47-2.469-2.47H298.784z"/>
						</g>
					</g>
				</g>
				<g>
					<g>
						<path fill-rule="evenodd" clip-rule="evenodd" fill="#F5C826" d="M310.124,447.498h-16.765c-1.725,0-3.122-1.397-3.122-3.121        l0,0c0-1.724,1.397-3.122,3.122-3.122h16.765c1.725,0,3.123,1.398,3.123,3.122l0,0        C313.247,446.101,311.848,447.498,310.124,447.498z"/>
					</g>
				</g>
			</g>
			<path fill="#F79D56" d="M298.063,431.612c-0.197,2.868-3.41,4.259-3.443,4.612c-0.008,0.088-0.09,0.194,0.217,0.336     c0.871,0.4,2.658-0.491,3.045-0.89c0.508,1.121,0.409,2.988,1.65,4.318c0.665,0.714,1.652,0.01,1.82-0.126     c1.24-0.999,3.309-2.737,3.563-2.952c0.127-0.106,0.164-0.284,0.172-0.449c0.027-0.594,0-1.244-1.125-2.561     c-0.387-0.451-1.58-1.82-2.047-3.077L298.063,431.612z"/>
			<path fill="#261AAB" d="M296.424,409.894c-6.527-3.729-9.66-9.663-14.897-9.663l-1.903,6.352     c5.111,2.305,13.17,8.907,13.17,8.907l4.971,17.118l4.484-0.984C300.086,423.397,299.238,411.501,296.424,409.894z"/>
		</g>
		<g>
			<g id="XMLID_209_">
				<g id="XMLID_210_">
					<g id="XMLID_211_">
						<g id="XMLID_212_">
							<g id="XMLID_213_">
								<circle fill="#F8DE78" cx="187.334" cy="208.754" r="12.102"/>
							</g>
						</g>
					</g>
				</g>
			</g>
			<g id="XMLID_208_">
				<g>
					<path fill="#FFFFFF" d="M193.25,203.054c-0.802-0.627-1.964-0.483-2.591,0.319l-5.048,6.47l-1.495-2.292       c-0.622-0.953-1.951-1.12-2.788-0.348l-0.027,0.026c-0.665,0.611-0.786,1.616-0.286,2.369l2.937,4.422       c0.329,0.494,0.875,0.801,1.468,0.823c0.023,0.001,0.047,0.002,0.07,0.002c0.567,0,1.105-0.262,1.456-0.711l6.625-8.489       C194.198,204.841,194.054,203.681,193.25,203.054z"/>
				</g>
			</g>
		</g>
		<g id="XMLID_190_">
			<g id="XMLID_197_">
				<g id="XMLID_204_">
					<g id="XMLID_205_">
						<g id="XMLID_206_">
							<g id="XMLID_207_">
								<circle fill="#F8DE78" cx="420.959" cy="208.754" r="12.102"/>
							</g>
						</g>
					</g>
				</g>
			</g>
			<g>
				<path fill="#FFFFFF" d="M427.715,207.013l-4.957-5.844c-0.659-0.777-1.825-0.874-2.602-0.214      c-0.777,0.66-0.873,1.825-0.215,2.603l2.842,3.351h-7.172c-1.021,0-1.846,0.826-1.846,1.846c0,1.021,0.824,1.847,1.846,1.847      h6.716l-2.479,3.472c-0.593,0.83-0.4,1.982,0.43,2.576c0.324,0.231,0.699,0.344,1.07,0.344c0.576,0,1.145-0.27,1.504-0.773      l4.957-6.938C428.301,208.592,428.261,207.658,427.715,207.013z"/>
			</g>
		</g>
	</g>

</g>
</svg>
